/* XPM */
static char *bd9f0f95676b4da9f6113721c7473e22EKZAK9wWhtCe574W[] = {
/* columns rows colors chars-per-pixel */
"32 32 10 1 ",
"  c #78A158",
". c #C0D470",
"X c #EAE178",
"o c #5C4E92",
"O c #766DAA",
"+ c #E8B5AC",
"@ c #E8EEAA",
"# c #DDD5DE",
"$ c #F3D8C5",
"% c #F3F2C0",
/* pixels */
"................................",
"................................",
"................................",
"............ ............ . ....",
"........... .............. .....",
"........... ....................",
".... ...........................",
"..... ..........................",
"..... .... .....................",
"......... ...ooo................",
"......... ..o%%%o.. . ..........",
"...........o%++%oo.. ...........",
"...........o%++%%%o.............",
"...........o%%%%%%o.............",
"...........o%%%%%%o.............",
"..........oo%%%%%%oo............",
"...........o%%%%o%%o............",
"..........oo%%%%%%%o............",
"...........o%%$$%%%o............",
"...........ooOOOOOo........@.@..",
"...........o#%OOOOX.........@...",
".......@....o%%%%oX.............",
"......@......o##o...............",
"...@..@.......oo................",
"....@.@.........................",
"....@.....@.....................",
"....@......@........@.@.........",
"...........@.........@..........",
"...........@....................",
"................................",
"................................",
"................................"
};
