/* XPM */
static char *dc64b9259c464953f61f550e33a634f6s0LC3Ns3mBT8ZhDB[] = {
/* columns rows colors chars-per-pixel */
"32 32 7 1 ",
"  c #78A158",
". c #C0D470",
"X c #5C4E92",
"o c #766DAA",
"O c #E8EEAA",
"+ c #DDD5DE",
"@ c #F3F2C0",
/* pixels */
"................................",
"................................",
"................................",
"............ ............ . ....",
"........... .............. .....",
"........... ....................",
".... ...........................",
"..... ..........................",
"..... .... .....................",
"......... .XXX....XXX...........",
"......... X@@@X..X@@@X..........",
"..........X@@@XXXX@@@X..........",
"..........X@@@++++@@@X..........",
"..........X@@@@@@@@@@X..........",
"..........X@@@@@@@@@@X..........",
".........XX@@@@@@@@@@XX.........",
"..........X@@@@@@@@@@X..........",
".........XX@@@@@@@@@@XX.........",
"..........X@@@@@@@@@@X..........",
"..........XXXooXXooXXX.....O.O..",
"..........X+@oX@@Xo@+X......O...",
".......O...XX@@@@@@XX...........",
"......O.....X++XX++X............",
"...O..O......XX..XX.............",
"....O.O.........................",
"....O.....O.....................",
"....O......O........O.O.........",
"...........O.........O..........",
"...........O....................",
"................................",
"................................",
"................................"
};
