/* XPM */
static char *_ef514501a0c46bea0c7e2baac65cf72D3CaI96orgICUT9q[] = {
/* columns rows colors chars-per-pixel */
"32 32 10 1 ",
"  c #78A158",
". c #C0D470",
"X c #EAE178",
"o c #5C4E92",
"O c #766DAA",
"+ c #E8B5AC",
"@ c #E8EEAA",
"# c #DDD5DE",
"$ c #F3D8C5",
"% c #F3F2C0",
/* pixels */
"................................",
"................................",
"................................",
"............ ............ . ....",
"........... .............. .....",
"........... ....................",
".... ...........................",
"..... ..........................",
"..... .... .....................",
"......... ......................",
"......... .ooo....ooo ..........",
"..........o%%%o..o%%%o..........",
"..........o++%oooo%++o..........",
"..........o++%####%++o..........",
"..........o%%%####%%%o..........",
"..........o%%%####%%%o..........",
".........oo%%%%%%%%%%oo.........",
"..........o%o%%%%%%o%o..........",
".........oo%%%%%%%%%%oo.........",
"..........o$$%%%%%%$$o.....@.@..",
"..........oooOOOOOOooo......@...",
".......@..o#%OOX%OO%#o..........",
"......@....oo%%XX%%oo...........",
"...@..@.....o##oo##o............",
"....@.@......oo..oo.............",
"....@.....@.....................",
"....@......@........@.@.........",
"...........@.........@..........",
"...........@....................",
"................................",
"................................",
"................................"
};
