/* XPM */
static char *_9e965253cdc434dddb4dd9d142e0c49KnzBFjJZjUuCmILv[] = {
/* columns rows colors chars-per-pixel */
"32 32 14 1 ",
"  c #754C60",
". c #5F7A79",
"X c #8A4A70",
"o c #A35B70",
"O c #AF6776",
"+ c #BD757E",
"@ c #78A158",
"# c #6E967C",
"$ c #B7C973",
"% c #C0D470",
"& c #82A884",
"* c #D99A9A",
"= c #E8EEAA",
"- c #F3F4E7",
/* pixels */
"%%%%%%%%%%%%%%%%%%%%%%%%%%%%%%%%",
"%%%%%%%%%%%%%%%%%%%%%%%%%%%%%%%%",
"%%%%%%%%%%%%%%%%%%%%%%%%%%%%%%%%",
"%%%%%%%%%%%%@%%%%%%%%%%%%@%@%%%%",
"%%%%%%%%%%%@%%%%%%%%%%%%%%@%%%%%",
"%%%%%%%%%%%@%%%%%%%%%%%%%%%%%%%%",
"%%%%@%$$$$$$$%%%%%%%%%%%%%%%%%%%",
"%%%%%@%%%%%%%%%%%%%%%%%%%%%%%%%%",
"%%%%%@%%%%@%%%%%%%----%%%%%%%%%%",
"%%%%%%%%%@%%%%----...-%%%%%%%%%%",
"%%%%%%%%%@%%%%- -.&&.-%%%%%%%%%%",
"%%%%%%%%%%%%--- .##&.-%%%%%%%%%%",
"%%%%%%%%%%%-ooo ....-%%%%%%%%%%%",
"%%%%%%%%%%-o+++ooOOo-%%%%%%%%%%%",
"%%%%%%%%%-o+*+++OOOOo-%%%%%%%%%%",
"%%%%%%%%%-o+++*+OOOOX-%%%%%%%%%%",
"%%%%%%%%%-o+++++OOOOX-%%%%%%%%%%",
"%%%%%%%%%-X++++OOOOOX-%%%%%%%%%%",
"%%%%%%%%%%-XOOOOOOOX-%%%%%%%%%%%",
"%%%%%%%%%%%-XOOXOOX-%%%%%%%=%=%%",
"%%%%%%%%%%%%-XX-XX-%%%%%%%%%=%%%",
"%%%%%%%=%%%%%--%--%%%%%%%%%%%%%%",
"%%%%%%=%%%%%%%%%%%%%%%%%%%%%%%%%",
"%%%=%%=%%%%%%%%%%%%%%%%%%%%%%%%%",
"%%%%=%=%%%%%%%%%%%%%%%%%%%%%%%%%",
"%%%%=%%%%%=%%%%%%%%%%%%%%%%%%%%%",
"%%%%=%%%%%%=%%%%%%%%=%=%%%%%%%%%",
"%%%%%%%%%%%=%%%%%%%%%=%%%%%%%%%%",
"%%%%%%%%%%%=%%%%%%%%%%%%%%%%%%%%",
"%%%%%%%%%%%%%%%%%%%%%%%%%%%%%%%%",
"%%%%%%%%%%%%%%%%%%%%%%%%%%%%%%%%",
"%%%%%%%%%%%%%%%%%%%%%%%%%%%%%%%%"
};
