/* XPM */
static char *cb68f90c834846cee9941912db277a824Oc4x4PPoQR0iKlD[] = {
/* columns rows colors chars-per-pixel */
"32 32 5 1 ",
"  c #78A158",
". c #C0D470",
"X c #DCB98A",
"o c #E8CFA6",
"O c #E8EEAA",
/* pixels */
"................................",
"................................",
"................................",
".......XXXXXXXXXXXXXXXXXX . ....",
".....XXooooooooooooooooooXX.....",
"....XooooooooooooooooooooooX....",
"....XooooooooooooooooooooooX....",
"...XooooooooooooooooooooooooX...",
"...XooooooooooooooooooooooooX...",
"...XooooooooooooooooooooooooX...",
"...XooooooooooooooooooooooooX...",
"...XooooooooooooooooooooooooX...",
"...XoooooooooXXXXXXoooooooooX...",
"...XooooooooX......XooooooooX...",
"...XooooooooX......XooooooooX...",
"...XooooooooX......XooooooooX...",
"...XooooooooX......XooooooooX...",
"...XooooooooX......XooooooooX...",
"...XooooooooX......XooooooooX...",
"...XoooooooooXXXXXXoooooooooXO..",
"...XooooooooooooooooooooooooX...",
"...XooooooooooooooooooooooooX...",
"...XooooooooooooooooooooooooX...",
"...XooooooooooooooooooooooooX...",
"...XooooooooooooooooooooooooX...",
"....XooooooooooooooooooooooX....",
"....XooooooooooooooooooooooX....",
".....XXooooooooooooooooooXX.....",
".......XXXXXXXXXXXXXXXXXX.......",
"................................",
"................................",
"................................"
};
