/* XPM */
static char *result[] = {
/* columns rows colors chars-per-pixel */
"32 32 14 1 ",
"  c #5F7A79",
". c #90625D",
"X c #AA7959",
"o c #78A158",
"O c #6E967C",
"+ c #B68962",
"@ c #C49A6C",
"# c #B7C973",
"$ c #C0D470",
"% c #97BB8E",
"& c #AED499",
"* c #C2E09A",
"= c #DDE2A6",
"- c #E8EEAA",
/* pixels */
"$$$$$$$$$$$$$$$$$$$$$$$$$$$$$$$$",
"$$$$$$$$$$$$         $$$$$$$$$$$",
"$$$$$$$$$$  %&&&&&&%% $$$$$$$$$$",
"$$$$$$$$  %&&&***&**&%  $o$o$$$$",
"$$$$$$$ %&&&&&***&**&&%% $o$$$$$",
"$$$$$$ %&***&***&&&&&&&&% $$$$$$",
"$$$$o %%&******&&&***&&&%% $$$$$",
"$$$$$ &&&&&**&&&&&******%% $$$$$",
"$$$$ %&&&&&&&&&&&&&&&***&&% $$$$",
"$$$$ %&&&&&&&&&&&&&&&&&&&&% $$$$",
"$$$$ %%%&&&%%&&&&&&%%%&&%%% $$$$",
"$$$$ %%%&&&%%&&&&&&%%%&&%% $$$$$",
"$$$$ %%%%%%%%%%%&&%&&&%%%% $$$$$",
"$$$$$ %%%&&&%%%%%%%%%%%%%%% $$$$",
"$$$$$ %%%%%%%%%%%%%%%%%%%%% $$$$",
"$$$$ O%%%%%%%%%%%%%%%%%%%%O $$$$",
"$$$$ OOO%OO%%OOO%%%%%OOOOOO $$$$",
"$$$$ OOO%OO%%OOO%%%%%OOOOOO $$$$",
"$$$$ OOOOOOOO%%%%%OOO%%%OO $$$$$",
"$$$$$ OO%%%OOOOOOOOOOOOOOO -$-$$",
"$$$$$ OOOOOOOOOOOOOOOOOOOO $-$$$",
"$$$$$$ OOOOOOOOOOOOOOOOOO $$$$$$",
"$$$$$$-  OOOOOOOOOOOOO   $$$$$$$",
"$$$-$$-$$             $$$$$$$$$$",
"$$$$-$-$$$$$.XXXXXX.$$$$$$$$$$$$",
"$$$$-$$$$$-$.+XXXX+.$$$$$$$$$$$$",
"$$$$-$$$$$$=.++++++.=$-$$$$$$$$$",
"$$$$$$$$$##=.+@+@@@.#=#$$$$$$$$$",
"$$$$$$$$###.@@@@@@@@.###$$$$$$$$",
"$$$$$$$$####@@@@@@@@####$$$$$$$$",
"$$$$$$$$$######@@######$$$$$$$$$",
"$$$$$$$$$$$$$$$$$$$$$$$$$$$$$$$$"
};
