/* XPM */
static char *character_north[] = {
/* columns rows colors chars-per-pixel */
"64 64 7 1 ",
"  c #78A158",
". c #C0D470",
"X c #5C4E92",
"o c #766DAA",
"O c #E8EEAA",
"+ c #DDD5DE",
"@ c #F3F2C0",
/* pixels */
"................................................................",
"................................................................",
"................................................................",
"................................................................",
"................................................................",
"................................................................",
"........................  ........................  ..  ........",
"........................  ........................  ..  ........",
"......................  ............................  ..........",
"......................  ............................  ..........",
"......................  ........................................",
"......................  ........................................",
"........  ......................................................",
"........  ......................................................",
"..........  ....................................................",
"..........  ....................................................",
"..........  ........  ..........................................",
"..........  ........  ..........................................",
"..................  ..XXXXXX........XXXXXX......................",
"..................  ..XXXXXX........XXXXXX......................",
"..................  XX@@@@@@XX....XX@@@@@@XX....................",
"..................  XX@@@@@@XX....XX@@@@@@XX....................",
"....................XX@@@@@@XXXXXXXX@@@@@@XX....................",
"....................XX@@@@@@XXXXXXXX@@@@@@XX....................",
"....................XX@@@@@@++++++++@@@@@@XX....................",
"....................XX@@@@@@++++++++@@@@@@XX....................",
"....................XX@@@@@@@@@@@@@@@@@@@@XX....................",
"....................XX@@@@@@@@@@@@@@@@@@@@XX....................",
"....................XX@@@@@@@@@@@@@@@@@@@@XX....................",
"....................XX@@@@@@@@@@@@@@@@@@@@XX....................",
"..................XXXX@@@@@@@@@@@@@@@@@@@@XXXX..................",
"..................XXXX@@@@@@@@@@@@@@@@@@@@XXXX..................",
"....................XX@@@@@@@@@@@@@@@@@@@@XX....................",
"....................XX@@@@@@@@@@@@@@@@@@@@XX....................",
"..................XXXX@@@@@@@@@@@@@@@@@@@@XXXX..................",
"..................XXXX@@@@@@@@@@@@@@@@@@@@XXXX..................",
"....................XX@@@@@@@@@@@@@@@@@@@@XX....................",
"....................XX@@@@@@@@@@@@@@@@@@@@XX....................",
"....................XXXXXXooooXXXXooooXXXXXX..........OO..OO....",
"....................XXXXXXooooXXXXooooXXXXXX..........OO..OO....",
"....................XX++@@ooXX@@@@XXoo@@++XX............OO......",
"....................XX++@@ooXX@@@@XXoo@@++XX............OO......",
"..............OO......XXXX@@@@@@@@@@@@XXXX......................",
"..............OO......XXXX@@@@@@@@@@@@XXXX......................",
"............OO..........XX++++XXXX++++XX........................",
"............OO..........XX++++XXXX++++XX........................",
"......OO....OO............XXXX....XXXX..........................",
"......OO....OO............XXXX....XXXX..........................",
"........OO..OO..................................................",
"........OO..OO..................................................",
"........OO..........OO..........................................",
"........OO..........OO..........................................",
"........OO............OO................OO..OO..................",
"........OO............OO................OO..OO..................",
"......................OO..................OO....................",
"......................OO..................OO....................",
"......................OO........................................",
"......................OO........................................",
"................................................................",
"................................................................",
"................................................................",
"................................................................",
"................................................................",
"................................................................"
};
