/* XPM */
static char *character_east[] = {
/* columns rows colors chars-per-pixel */
"64 64 10 1 ",
"  c #78A158",
". c #C0D470",
"X c #EAE178",
"o c #5C4E92",
"O c #766DAA",
"+ c #E8B5AC",
"@ c #E8EEAA",
"# c #DDD5DE",
"$ c #F3D8C5",
"% c #F3F2C0",
/* pixels */
"................................................................",
"................................................................",
"................................................................",
"................................................................",
"................................................................",
"................................................................",
"........................  ........................  ..  ........",
"........................  ........................  ..  ........",
"......................  ............................  ..........",
"......................  ............................  ..........",
"......................  ........................................",
"......................  ........................................",
"........  ......................................................",
"........  ......................................................",
"..........  ....................................................",
"..........  ....................................................",
"..........  ........  ..........................................",
"..........  ........  ..........................................",
"..................  ......oooooo................................",
"..................  ......oooooo................................",
"..................  ....oo%%%%%%oo....  ..  ....................",
"..................  ....oo%%%%%%oo....  ..  ....................",
"......................oo%%++++%%oooo....  ......................",
"......................oo%%++++%%oooo....  ......................",
"......................oo%%++++%%%%%%oo..........................",
"......................oo%%++++%%%%%%oo..........................",
"......................oo%%%%%%%%%%%%oo..........................",
"......................oo%%%%%%%%%%%%oo..........................",
"......................oo%%%%%%%%%%%%oo..........................",
"......................oo%%%%%%%%%%%%oo..........................",
"....................oooo%%%%%%%%%%%%oooo........................",
"....................oooo%%%%%%%%%%%%oooo........................",
"......................oo%%%%%%%%oo%%%%oo........................",
"......................oo%%%%%%%%oo%%%%oo........................",
"....................oooo%%%%%%%%%%%%%%oo........................",
"....................oooo%%%%%%%%%%%%%%oo........................",
"......................oo%%%%$$$$%%%%%%oo........................",
"......................oo%%%%$$$$%%%%%%oo........................",
"......................ooooOOOOOOOOOOoo................@@..@@....",
"......................ooooOOOOOOOOOOoo................@@..@@....",
"......................oo##%%OOOOOOOOXX..................@@......",
"......................oo##%%OOOOOOOOXX..................@@......",
"..............@@........oo%%%%%%%%ooXX..........................",
"..............@@........oo%%%%%%%%ooXX..........................",
"............@@............oo####oo..............................",
"............@@............oo####oo..............................",
"......@@....@@..............oooo................................",
"......@@....@@..............oooo................................",
"........@@..@@..................................................",
"........@@..@@..................................................",
"........@@..........@@..........................................",
"........@@..........@@..........................................",
"........@@............@@................@@..@@..................",
"........@@............@@................@@..@@..................",
"......................@@..................@@....................",
"......................@@..................@@....................",
"......................@@........................................",
"......................@@........................................",
"................................................................",
"................................................................",
"................................................................",
"................................................................",
"................................................................",
"................................................................"
};
