/* XPM */
static char *c1449193c7b748d9e13a4ec455334327uRXclbnl0Z5uXUWu[] = {
/* columns rows colors chars-per-pixel */
"64 64 157 2 ",
"   c #1A0B06",
".  c #1E0F0B",
"X  c #1F100B",
"o  c #23110F",
"O  c #210E14",
"+  c #261313",
"@  c #281615",
"#  c #271813",
"$  c #2C151D",
"%  c #2E191C",
"&  c #311C1E",
"*  c #2F2019",
"=  c #33231F",
"-  c #351D22",
";  c #381E25",
":  c #3A1F28",
">  c #352222",
",  c #392426",
"<  c #362824",
"1  c #382925",
"2  c #3E232C",
"3  c #3D2B29",
"4  c #3E2930",
"5  c #40242D",
"6  c #41292E",
"7  c #44322F",
"8  c #43392F",
"9  c #422631",
"0  c #432A30",
"q  c #453132",
"w  c #463A32",
"e  c #483E35",
"r  c #4B3738",
"t  c #4D3A3A",
"y  c #523F3E",
"u  c #4F423A",
"i  c #53443F",
"p  c #554442",
"a  c #584545",
"s  c #564842",
"d  c #5A4B46",
"f  c #5D494A",
"g  c #5A5146",
"h  c #5D534A",
"j  c #614F4D",
"k  c #61574E",
"l  c #62584F",
"z  c #635651",
"x  c #695755",
"c  c #665C52",
"v  c #695C54",
"b  c #6E5F5B",
"n  c #6D605A",
"m  c #71635D",
"M  c #716B5C",
"N  c #7A6B65",
"B  c #7B7266",
"V  c #7D736A",
"C  c #867D73",
"Z  c #887E74",
"A  c #917F7D",
"S  c #898075",
"D  c #8E827A",
"F  c #90837C",
"G  c #948081",
"H  c #9A9386",
"J  c #9F9A87",
"K  c #9E948A",
"L  c #A49D8F",
"P  c #A69492",
"I  c #A49B90",
"U  c #AA9D95",
"Y  c #A3A08D",
"T  c #A6A090",
"R  c #AAA096",
"E  c #ACA298",
"W  c #AFAC99",
"Q  c #B1A39D",
"!  c #B3A99F",
"~  c #B3A9A0",
"^  c #B8A9A4",
"/  c #BDB9A6",
"(  c #BFB7AA",
")  c #BEBAAA",
"_  c #C0BAAB",
"`  c #C4B7B1",
"'  c #C7BCB2",
"]  c #C4C3AF",
"[  c #C6C5B0",
"{  c #C9C2B5",
"}  c #CDC3B8",
"|  c #D2C7BE",
" . c #D2CABD",
".. c #CFD1BB",
"X. c #D4D2BE",
"o. c #D3C6C0",
"O. c #D5CCC1",
"+. c #D6D3C1",
"@. c #DAD4C6",
"#. c #DDD8C5",
"$. c #DFD7CA",
"%. c #DED8CA",
"&. c #E2DACD",
"*. c #E6E6D1",
"=. c #E9E7D3",
"-. c #E6E8D2",
";. c #EAEDD4",
":. c #EDEBD9",
">. c #F2EEDC",
",. c #EBF3D5",
"<. c #EEF5D9",
"1. c #EFF8D9",
"2. c #F2F4DC",
"3. c #F5FADF",
"4. c #F5FCDD",
"5. c #F3F9DC",
"6. c #F4F3E1",
"7. c #F5F4E0",
"8. c #F7F6E1",
"9. c #F6F5E0",
"0. c #F8F7E2",
"q. c #F9F1E4",
"w. c #F8F0E3",
"e. c #F6FAE1",
"r. c #F7F9E3",
"t. c #F7FBE2",
"y. c #F6FAE3",
"u. c #F6FCE0",
"i. c #F7F9E4",
"p. c #F7FBE4",
"a. c #F7FAE2",
"s. c #FAF8E3",
"d. c #F9FBE3",
"f. c #F8FAE2",
"g. c #F9FDE2",
"h. c #F8FCE3",
"j. c #FAFEE3",
"k. c #F8FEE2",
"l. c #FAF9E4",
"z. c #F9FBE5",
"x. c #FBFAE5",
"c. c #FBF8E7",
"v. c #FCFBE7",
"b. c #F9FDE4",
"n. c #F8FCE5",
"m. c #FAFCE4",
"M. c #FBFDE5",
"N. c #FAFEE5",
"B. c #FAFCE6",
"V. c #FDFCE7",
"C. c #FAFCE4",
"Z. c #FFFAEA",
"A. c #FDFCE8",
"S. c #FFFDEA",
"D. c #FFFEEA",
"F. c #FFFCEE",
"G. c #FFFCEB",
/* pixels */
"$ 2 2 2 5 2 2 2 2 2 2 2 2 2 2 2 2 2 : : 9 2 : 9 2 2 2 : 2 2 2 2 2 2 2 2 2 2 2 2 2 2 2 2 2 2 2 2 2 2 2 2 5 5 2 2 : 5 5 5 2 2 2 2 ",
"$ 2 2 2 5 : 2 2 2 2 2 2 2 2 2 2 5 2 5 2 2 2 5 2 2 2 2 2 2 2 2 2 2 2 2 2 2 2 2 2 2 2 2 2 2 2 2 2 2 2 2 2 5 : 2 2 : 5 : 5 2 2 5 : ",
"$ 2 2 2 2 2 5 2 2 5 5 2 2 2 2 2 2 5 2 2 2 2 2 2 2 2 2 2 2 2 2 2 2 2 2 2 2 2 2 2 5 2 2 2 2 5 2 2 2 2 2 2 2 2 5 5 5 5 5 2 : 2 5 5 ",
"$ 4 2 2 2 2 2 2 2 : 2 2 : 2 2 2 2 2 2 2 2 2 : 5 2 2 2 2 2 2 2 2 2 2 2 2 2 5 : 2 2 2 2 2 2 2 2 2 2 2 2 2 2 2 5 : 5 : : 5 5 2 2 2 ",
"$ 4 2 2 2 2 2 2 2 2 2 2 5 2 2 2 2 2 2 2 2 2 2 2 2 2 2 2 2 2 2 2 2 5 5 , 2 2 2 2 2 2 : 2 5 5 2 2 2 2 2 2 2 2 2 2 5 5 2 2 5 2 2 2 ",
"$ 2 2 2 2 2 5 : 2 2 2 2 5 2 5 2 2 , 2 , 2 , 2 , 2 2 2 , , 2 2 3 , 2 , 2 , 2 2 2 2 2 5 5 2 : 2 2 2 2 2 2 5 : 2 2 2 : 2 2 5 2 5 : ",
"$ 4 2 2 2 2 2 , 2 2 2 2 2 2 2 2 2 , > = > > > > > = > = > = > > = > = = , ; , , 2 2 2 2 2 2 2 2 2 2 2 2 5 2 2 2 2 2 2 2 2 2 5 5 ",
"$ 4 2 2 2 2 2 2 2 2 2 2 2 2 2 2 ; p } +. . . . . . . . . . . . . . . . .| @.Q , 2 2 2 2 2 2 2 2 2 2 2 2 2 2 2 2 2 2 2 2 2 5 5 : ",
"$ 4 2 2 2 2 2 2 2 2 5 5 5 5 5 5 ; a >.l.m.r.l.r.n.u.n.u.N.u.r.m.g.m.r.g.r.S. .1 2 2 2 2 2 2 2 2 2 2 2 2 2 2 2 2 5 2 2 2 2 2 2 2 ",
"$ 4 2 2 2 2 2 2 2 2 : 2 : 5 5 5 , s =.,.;.,.,.,.,.,.,.,.,.,.,.,.,.,.;.,.;.0.' 1 , 5 6 2 2 2 2 2 2 2 2 2 2 2 2 2 5 : 2 2 2 2 2 2 ",
"$ 2 2 2 2 2 2 2 2 2 2 2 5 : & & @ u >.N.l.N.l.l.m.m.5.<.<.<.5.g.n.n.N.l.m.S.} * = & & 2 2 2 5 2 2 2 2 2 2 2 2 2 2 2 2 2 2 2 2 2 ",
"$ 2 2 2 2 2 2 2 2 2 2 2 & j ^ ! ~ U V N B B B B B M ..u.,.4.! M B B B B B N Z ~ Q ! Q t , 2 2 2 2 2 2 2 2 2 2 2 2 5 2 2 2 2 2 2 ",
"$ 2 2 2 2 2 2 2 2 2 2 2 & m Z.c.S.%., % & & & & & X / u.,.j.C X - % % % & o g G.M.M.q.d > 2 2 2 2 2 2 2 2 2 2 2 2 2 2 2 2 2 2 2 ",
"$ 4 2 2 2 2 2 2 2 2 2 2 - b >.;.5.X.q 2 5 5 5 5 9 - ) g.,.M.F & 0 3 5 2 0 > z :.,.2.;.i > 2 2 2 2 2 2 2 2 2 2 5 2 2 2 2 2 2 5 : ",
"$ 2 2 2 2 2 2 2 2 2 2 2 - b x.,.4.+.6 2 5 2 2 2 5 & _ g.;.4.D % 2 2 2 2 5 - k 6.2.2.:.i - 2 2 5 5 5 2 2 2 2 2 2 2 2 2 2 2 2 2 2 ",
"$ 4 2 2 2 2 2 2 2 2 2 2 - b l.,.4.X.7 2 2 2 2 2 5 & _ g.;.g.A % 0 2 2 2 9 & z 6.<.2.:.i > 2 2 2 2 : 2 2 2 2 2 2 2 2 2 2 2 2 2 2 ",
"$ 2 2 2 2 : 2 2 2 2 : 5 & n y.,.4.X.q 2 2 2 2 2 2 & ) g.,.g.D % 6 2 2 2 0 % h 6.<.<.:.i - 9 5 2 2 2 2 2 2 2 2 2 5 : 2 2 : 2 2 2 ",
"$ 4 2 2 2 2 2 2 2 5 5 5 - n e.,.4.X.0 : 2 2 2 2 9 % ) N.,.N.F % 3 2 2 2 2 = z 8.<.<.:.i > 2 2 2 2 2 2 2 2 2 2 2 2 5 2 2 5 5 2 2 ",
"$ 4 2 2 2 2 2 2 5 : : 5 - b 8.,.4.X.q : 2 2 2 2 5 & _ N.;.g.D % 5 2 2 2 2 - z 6.<.5.:.s - 2 2 2 2 2 2 : 2 2 : 2 2 5 : 2 9 : 2 2 ",
"$ 2 2 2 2 2 2 2 5 5 5 5 & b r.,.4.X.7 , 2 2 2 2 5 % _ g.;.g.F % 5 2 2 2 2 - h 6.<.5.:.s > 2 2 2 2 5 5 5 2 5 5 2 2 2 9 2 2 2 2 2 ",
"$ 2 2 2 2 2 2 2 2 2 2 5 - b i.,.4.+.0 : 2 2 2 2 5 & _ g.,.m.D % 6 2 2 2 2 - z 5.<.<.:.s > 2 2 2 2 : 5 : 5 5 2 2 2 2 2 2 2 2 2 5 ",
"$ 9 2 2 2 2 2 2 2 2 5 2 - b 8.;.5.+.q , 9 2 9 4 9 & _ g.,.N.F % 0 2 5 5 2 - z 6.:.<.:.s > 2 2 2 5 5 5 : 5 : 2 2 : 2 2 2 2 2 5 : ",
"$ 2 2 2 2 2 2 2 5 2 2 5 - b F.6.N.@.3 - ; ; ; ; , # ) g.;.m.S @ ; - ; ; ; @ g i.e.n.>.s - 5 : 5 5 2 2 5 5 2 2 9 9 2 5 2 5 : 2 2 ",
"$ 2 2 2 2 2 2 2 2 2 2 5 - x $.O.#._ d t p p p p a e ] u.,.r.H w a p i p p e N @.@.@.O.p ; 5 5 2 2 2 : 5 : 9 2 : 2 2 2 2 2 2 5 2 ",
"$ 2 2 2 2 2 2 2 2 2 2 2 2 : : : > s =.3.<.2.2.2.2.2.<.<.,.1.<.2.<.2.2.2.>.x.{ < : 2 , 5 2 2 5 5 2 2 5 5 2 5 2 9 2 2 5 : 5 2 5 2 ",
"$ 2 2 2 2 2 2 2 2 2 2 2 9 : 2 9 - a =.2.,.1.<.<.<.<.1.,.1.,.1.<.<.<.<.<.,.u.{ > 2 2 2 2 2 2 : 2 2 2 2 : 2 : 5 : : 2 2 2 2 2 2 2 ",
"$ 2 2 2 2 2 2 2 2 5 2 2 2 2 : 9 - a ;.5.<.1.5.2.1.1.1.,.,.1.<.1.1.1.<.5.2.x.} 1 5 5 5 2 2 2 : 2 2 2 2 2 2 5 2 2 5 2 2 2 2 2 2 : ",
"$ 4 2 2 2 2 2 2 2 : 5 2 2 5 5 2 ; a &.;.=.=.-.=.-.-.,.1.1.2.;.=.=.=.-.=.*.2.` , : 9 : 2 2 2 5 2 2 2 2 2 2 2 2 2 5 2 2 2 2 2 2 9 ",
"$ 4 2 2 2 2 2 5 2 5 2 2 2 : 2 2 2 5 y y i y y y i w [ g.,.g.H 8 p y y p i i y 2 5 2 2 2 2 2 5 2 2 9 2 2 2 2 2 2 2 5 2 2 2 2 2 2 ",
"$ 4 2 2 2 2 9 2 2 2 2 2 5 5 2 2 2 2 ; ; - ; ; , , # / g.,.N.Z @ ; ; ; ; - - : : 5 : 2 2 2 2 2 2 2 : 2 2 5 5 2 2 2 2 2 5 : 9 2 2 ",
"$ 4 2 2 2 2 2 2 : 2 5 2 2 2 2 2 2 2 5 5 5 2 5 5 9 & _ g.;.g.D % 3 2 5 9 2 5 5 2 2 2 2 9 2 2 : 5 2 2 2 5 2 : 2 2 2 2 5 : 2 2 2 : ",
"$ 2 2 2 2 2 2 2 5 2 2 2 2 2 2 2 2 2 2 2 2 2 2 2 5 & _ g.,.r.D % 0 2 2 2 2 2 2 2 2 2 2 : 2 2 2 5 2 2 5 : 2 2 2 9 : 2 2 2 2 2 5 5 ",
"$ 5 2 2 2 2 5 2 2 2 2 2 2 2 : 5 2 2 2 2 2 2 2 2 5 & ) g.,.N.D % 2 2 2 2 2 2 2 2 : 5 2 2 2 2 2 2 2 2 2 5 2 2 2 2 2 2 2 2 2 5 2 2 ",
"$ 2 2 2 2 2 2 2 2 2 2 5 2 2 5 2 : 2 5 2 2 2 2 2 2 & _ g.;.l.F % 2 2 2 2 2 2 2 2 2 2 2 2 2 2 2 2 2 2 2 2 2 2 2 2 2 2 2 2 2 2 5 : ",
"$ 9 2 2 2 2 2 2 2 2 : 5 5 2 2 2 5 2 2 2 2 : 9 2 5 & _ g.;.g.D & 0 9 9 9 5 5 5 2 2 2 2 2 2 2 2 2 : 2 2 2 2 2 : 2 2 2 2 2 2 2 2 5 ",
"$ 2 2 2 2 2 2 2 2 2 2 2 2 2 2 2 2 5 2 2 2 5 2 2 6 & ) g.,.g.Z . = % % % & % - 2 2 2 2 2 2 2 2 2 5 2 2 2 2 2 5 2 2 2 2 2 2 2 2 2 ",
"$ 4 2 2 2 2 2 2 2 2 2 2 2 2 2 2 2 2 : 9 2 2 2 2 2 & _ N.,.5.[ J T L I L L E A , 5 2 2 2 2 2 5 5 5 2 2 2 2 2 2 2 5 2 2 2 2 2 : 5 ",
"$ 2 2 2 2 2 2 2 2 2 2 2 2 2 2 2 2 2 2 2 2 2 2 2 9 % ( N.,.,.r.l.N.N.M.M.0.S.o., : 5 2 2 2 2 2 5 2 2 2 2 2 2 2 2 : 2 2 5 2 2 2 5 ",
"$ 2 2 2 : 2 2 2 2 2 2 2 5 2 5 5 : 2 2 2 2 2 2 2 2 & ) N.,.<.,.,.,.;.;.;.;.8.' 1 2 5 2 2 2 2 5 : 2 2 2 2 2 2 2 2 5 2 : 5 2 2 2 2 ",
"$ 2 2 2 2 2 2 2 2 2 2 2 5 : 5 : 9 2 2 2 2 2 2 2 5 & ) N.,.<.e.A.M.M.M.S.l.G.o., : 2 2 2 2 : 5 5 2 2 2 2 2 2 2 2 2 2 2 2 2 2 2 2 ",
"$ 4 2 4 2 2 2 2 5 5 2 2 : 5 2 2 2 2 : 5 5 2 : 5 5 & _ N.,.3.[ I U U U U U U G , 2 2 2 2 2 2 2 2 2 5 2 2 : 5 5 5 5 2 2 2 2 2 2 2 ",
"$ 2 2 2 2 2 2 2 : 5 2 2 5 5 2 2 5 2 2 2 5 2 5 5 5 & _ N.,.l.C   % % % @ % @ - 2 2 2 2 2 2 2 2 2 2 5 : 2 5 5 : : 2 2 2 2 2 2 5 : ",
"$ 2 2 2 2 2 2 2 2 2 2 2 2 2 : 5 : 2 2 2 5 5 5 : 5 & _ g.;.m.D & 0 0 0 2 5 0 2 2 2 2 2 2 5 5 2 2 2 2 2 2 5 : 5 5 2 2 : 2 2 2 5 2 ",
"$ 2 2 2 2 2 2 2 2 2 2 2 2 2 5 5 5 5 2 2 2 : 5 5 5 & ) g.,.g.S + > & ; 2 2 2 2 2 2 5 2 2 : 2 2 2 2 2 2 2 5 5 : 2 2 2 5 5 2 2 2 2 ",
"$ 2 2 2 2 2 2 2 2 : 5 2 2 2 2 2 2 5 5 : 2 2 2 2 5 & ) N.,.4.Y d c v a , 2 2 2 2 2 2 2 2 2 2 2 2 2 2 2 5 5 5 5 2 5 : 2 2 5 2 2 2 ",
"$ 2 2 2 2 2 2 2 2 2 5 2 2 2 5 2 2 5 : 5 2 2 2 2 6 % _ N.,.<.2.3.2.Z.Q & 2 2 2 2 2 2 2 2 2 5 2 2 2 2 5 : : 2 2 2 5 2 2 2 : 5 5 2 ",
"$ 2 2 2 2 2 2 2 2 2 2 2 2 : : 5 2 2 2 2 : 5 2 2 5 & ) N.,.<.1.<.,.x.E > 2 2 2 2 2 2 2 2 2 : 5 2 5 : 5 2 2 2 5 : 5 2 2 2 2 5 2 2 ",
"$ 4 2 2 2 2 2 2 2 2 2 2 5 5 5 2 2 2 2 2 5 2 2 2 5 & ) N.,.<.2.2.2.x.Q & 3 2 2 2 2 2 2 2 2 2 5 2 5 2 2 2 2 5 5 2 2 2 2 2 2 5 : 2 ",
"$ 4 2 2 2 2 2 2 2 2 2 2 2 2 2 2 2 2 2 2 2 2 2 2 9 $ ` Z.,.<.;.=.*.w.U - 4 2 2 2 2 2 2 : 2 2 2 2 5 2 2 : 2 2 2 2 2 2 2 2 2 2 2 2 ",
"$ 2 2 2 2 2 2 2 2 2 2 2 2 2 2 2 2 2 2 2 2 2 2 2 : $ ( c.,.g.H w i s r 2 2 2 2 2 2 2 2 2 2 2 2 2 2 2 5 5 2 2 2 2 2 2 2 2 2 2 2 5 ",
"$ 2 2 2 2 2 2 2 2 2 2 2 2 2 2 2 2 2 2 2 2 2 2 2 4 % ( n.;.u.S @ > - ; 2 2 2 2 2 2 2 2 2 2 2 2 2 5 : 5 2 : 5 2 2 2 2 2 2 2 5 2 2 ",
"$ 2 2 2 2 2 2 2 2 2 2 2 2 2 2 2 2 2 2 2 2 2 2 2 2 & _ l.,.Z.D % 3 2 2 2 2 2 2 2 2 2 2 2 2 2 2 2 5 2 2 2 2 2 2 2 2 2 2 2 2 2 5 : ",
"$ 4 2 2 2 2 2 2 2 2 2 2 2 2 2 2 2 9 2 2 2 2 2 2 5 - ` Z.2.Z.D # 1 < < , > > , 2 2 2 2 2 2 2 2 2 5 2 2 2 2 2 2 2 2 5 2 2 2 2 2 2 ",
"$ 2 2 2 2 2 2 2 2 2 2 2 2 2 2 2 2 2 2 2 2 2 2 2 2 , j n b c H ' ( _ _ _ ( ' P 3 2 2 2 2 2 2 2 2 5 : 2 2 2 2 2 2 2 : 5 2 2 2 2 2 ",
"$ 2 2 2 2 2 2 2 2 2 2 5 2 2 2 2 2 2 2 2 2 2 2 2 2 2 ; - - + K G.r.r.l.l.y.F.o.: : 2 2 2 2 2 2 2 5 2 2 2 2 2 2 2 2 5 2 2 5 5 2 2 ",
"$ 4 2 2 2 2 2 2 2 2 2 2 2 2 2 2 2 2 2 2 2 2 2 2 2 2 2 9 9 - K l.;.,.;.,.:.i.` 2 : 2 2 2 2 2 2 4 2 2 2 2 2 2 2 2 2 2 2 2 2 : 2 2 ",
"$ 2 2 2 2 2 2 2 2 2 2 2 2 2 2 5 2 2 2 2 2 2 2 2 2 5 5 5 4 % I F.r.l.M.x.x.Z.o., : 2 2 2 2 2 2 2 2 2 2 2 2 2 2 2 2 2 2 : 5 2 2 2 ",
"$ 2 2 2 2 2 2 2 2 2 2 2 2 2 5 : 2 2 2 2 2 2 2 2 2 : 5 2 2 > z G C S S C Z F N 2 2 2 2 2 2 2 2 2 2 2 2 2 2 2 2 2 5 : 2 2 5 2 2 2 ",
"$ 4 2 2 2 2 2 2 2 2 2 2 2 2 2 2 2 2 2 2 2 2 2 2 2 2 2 2 2 2 : $ & % & & & & - 2 2 2 2 2 2 2 2 2 2 2 2 2 2 2 2 2 5 2 2 2 9 : 2 2 ",
"$ 4 2 2 2 2 2 2 2 2 2 2 2 5 2 2 2 2 2 2 2 2 2 2 2 5 2 2 2 2 2 2 5 6 5 5 5 5 2 2 2 : 2 2 2 2 2 2 2 2 2 2 2 2 2 : 2 2 2 2 2 2 2 2 ",
"$ 2 2 2 2 2 2 2 2 2 2 2 2 : 2 2 4 : 4 2 2 2 2 2 2 2 2 2 2 2 2 2 2 2 2 2 2 2 2 2 2 2 2 2 2 2 2 2 2 2 2 2 2 2 2 2 2 2 2 2 2 2 2 : ",
"$ 2 : 2 2 2 2 2 2 2 2 2 2 2 2 2 : 2 : 2 2 2 2 2 2 2 2 2 2 2 2 , 2 2 2 ; 2 2 2 2 2 2 2 2 2 2 2 : 2 2 2 : 2 2 2 2 2 2 2 2 2 2 2 2 ",
"$ 4 4 4 2 2 4 2 2 4 2 2 2 2 9 2 2 4 4 2 4 4 2 4 2 4 2 2 4 2 4 2 2 2 2 4 4 4 2 3 4 2 2 2 4 4 4 2 4 4 2 4 2 4 4 2 2 4 4 2 2 2 9 2 ",
"O $ $ $ $ $ $ $ $ $ $ $ $ $ $ $ $ $ $ $ $ $ $ $ $ $ $ $ $ $ $ $ $ $ $ $ $ $ $ $ $ $ $ $ $ $ $ $ $ $ $ $ $ $ $ $ $ $ $ $ $ $ $ $ "
};
