/* XPM */
static char *collectible[] = {
/* columns rows colors chars-per-pixel */
"64 64 14 1 ",
"  c #754C60",
". c #5F7A79",
"X c #8A4A70",
"o c #A35B70",
"O c #AF6776",
"+ c #BD757E",
"@ c #78A158",
"# c #6E967C",
"$ c #B7C973",
"% c #C0D470",
"& c #82A884",
"* c #D99A9A",
"= c #E8EEAA",
"- c #F3F4E7",
/* pixels */
"%%%%%%%%%%%%%%%%%%%%%%%%%%%%%%%%%%%%%%%%%%%%%%%%%%%%%%%%%%%%%%%%",
"%%%%%%%%%%%%%%%%%%%%%%%%%%%%%%%%%%%%%%%%%%%%%%%%%%%%%%%%%%%%%%%%",
"%%%%%%%%%%%%%%%%%%%%%%%%%%%%%%%%%%%%%%%%%%%%%%%%%%%%%%%%%%%%%%%%",
"%%%%%%%%%%%%%%%%%%%%%%%%%%%%%%%%%%%%%%%%%%%%%%%%%%%%%%%%%%%%%%%%",
"%%%%%%%%%%%%%%%%%%%%%%%%%%%%%%%%%%%%%%%%%%%%%%%%%%%%%%%%%%%%%%%%",
"%%%%%%%%%%%%%%%%%%%%%%%%%%%%%%%%%%%%%%%%%%%%%%%%%%%%%%%%%%%%%%%%",
"%%%%%%%%%%%%%%%%%%%%%%%%@@%%%%%%%%%%%%%%%%%%%%%%%%@@%%@@%%%%%%%%",
"%%%%%%%%%%%%%%%%%%%%%%%%@@%%%%%%%%%%%%%%%%%%%%%%%%@@%%@@%%%%%%%%",
"%%%%%%%%%%%%%%%%%%%%%%@@%%%%%%%%%%%%%%%%%%%%%%%%%%%%@@%%%%%%%%%%",
"%%%%%%%%%%%%%%%%%%%%%%@@%%%%%%%%%%%%%%%%%%%%%%%%%%%%@@%%%%%%%%%%",
"%%%%%%%%%%%%%%%%%%%%%%@@%%%%%%%%%%%%%%%%%%%%%%%%%%%%%%%%%%%%%%%%",
"%%%%%%%%%%%%%%%%%%%%%%@@%%%%%%%%%%%%%%%%%%%%%%%%%%%%%%%%%%%%%%%%",
"%%%%%%%%@@%%$$$$$$$$$$$$$$%%%%%%%%%%%%%%%%%%%%%%%%%%%%%%%%%%%%%%",
"%%%%%%%%@@%%$$$$$$$$$$$$$$%%%%%%%%%%%%%%%%%%%%%%%%%%%%%%%%%%%%%%",
"%%%%%%%%%%@@%%%%%%%%%%%%%%%%%%%%%%%%%%%%%%%%%%%%%%%%%%%%%%%%%%%%",
"%%%%%%%%%%@@%%%%%%%%%%%%%%%%%%%%%%%%%%%%%%%%%%%%%%%%%%%%%%%%%%%%",
"%%%%%%%%%%@@%%%%%%%%@@%%%%%%%%%%%%%%--------%%%%%%%%%%%%%%%%%%%%",
"%%%%%%%%%%@@%%%%%%%%@@%%%%%%%%%%%%%%--------%%%%%%%%%%%%%%%%%%%%",
"%%%%%%%%%%%%%%%%%%@@%%%%%%%%--------......--%%%%%%%%%%%%%%%%%%%%",
"%%%%%%%%%%%%%%%%%%@@%%%%%%%%--------......--%%%%%%%%%%%%%%%%%%%%",
"%%%%%%%%%%%%%%%%%%@@%%%%%%%%--  --..&&&&..--%%%%%%%%%%%%%%%%%%%%",
"%%%%%%%%%%%%%%%%%%@@%%%%%%%%--  --..&&&&..--%%%%%%%%%%%%%%%%%%%%",
"%%%%%%%%%%%%%%%%%%%%%%%%------  ..####&&..--%%%%%%%%%%%%%%%%%%%%",
"%%%%%%%%%%%%%%%%%%%%%%%%------  ..####&&..--%%%%%%%%%%%%%%%%%%%%",
"%%%%%%%%%%%%%%%%%%%%%%--oooooo  ........--%%%%%%%%%%%%%%%%%%%%%%",
"%%%%%%%%%%%%%%%%%%%%%%--oooooo  ........--%%%%%%%%%%%%%%%%%%%%%%",
"%%%%%%%%%%%%%%%%%%%%--oo++++++ooooOOOOoo--%%%%%%%%%%%%%%%%%%%%%%",
"%%%%%%%%%%%%%%%%%%%%--oo++++++ooooOOOOoo--%%%%%%%%%%%%%%%%%%%%%%",
"%%%%%%%%%%%%%%%%%%--oo++**++++++OOOOOOOOoo--%%%%%%%%%%%%%%%%%%%%",
"%%%%%%%%%%%%%%%%%%--oo++**++++++OOOOOOOOoo--%%%%%%%%%%%%%%%%%%%%",
"%%%%%%%%%%%%%%%%%%--oo++++++**++OOOOOOOOXX--%%%%%%%%%%%%%%%%%%%%",
"%%%%%%%%%%%%%%%%%%--oo++++++**++OOOOOOOOXX--%%%%%%%%%%%%%%%%%%%%",
"%%%%%%%%%%%%%%%%%%--oo++++++++++OOOOOOOOXX--%%%%%%%%%%%%%%%%%%%%",
"%%%%%%%%%%%%%%%%%%--oo++++++++++OOOOOOOOXX--%%%%%%%%%%%%%%%%%%%%",
"%%%%%%%%%%%%%%%%%%--XX++++++++OOOOOOOOOOXX--%%%%%%%%%%%%%%%%%%%%",
"%%%%%%%%%%%%%%%%%%--XX++++++++OOOOOOOOOOXX--%%%%%%%%%%%%%%%%%%%%",
"%%%%%%%%%%%%%%%%%%%%--XXOOOOOOOOOOOOOOXX--%%%%%%%%%%%%%%%%%%%%%%",
"%%%%%%%%%%%%%%%%%%%%--XXOOOOOOOOOOOOOOXX--%%%%%%%%%%%%%%%%%%%%%%",
"%%%%%%%%%%%%%%%%%%%%%%--XXOOOOXXOOOOXX--%%%%%%%%%%%%%%==%%==%%%%",
"%%%%%%%%%%%%%%%%%%%%%%--XXOOOOXXOOOOXX--%%%%%%%%%%%%%%==%%==%%%%",
"%%%%%%%%%%%%%%%%%%%%%%%%--XXXX--XXXX--%%%%%%%%%%%%%%%%%%==%%%%%%",
"%%%%%%%%%%%%%%%%%%%%%%%%--XXXX--XXXX--%%%%%%%%%%%%%%%%%%==%%%%%%",
"%%%%%%%%%%%%%%==%%%%%%%%%%----%%----%%%%%%%%%%%%%%%%%%%%%%%%%%%%",
"%%%%%%%%%%%%%%==%%%%%%%%%%----%%----%%%%%%%%%%%%%%%%%%%%%%%%%%%%",
"%%%%%%%%%%%%==%%%%%%%%%%%%%%%%%%%%%%%%%%%%%%%%%%%%%%%%%%%%%%%%%%",
"%%%%%%%%%%%%==%%%%%%%%%%%%%%%%%%%%%%%%%%%%%%%%%%%%%%%%%%%%%%%%%%",
"%%%%%%==%%%%==%%%%%%%%%%%%%%%%%%%%%%%%%%%%%%%%%%%%%%%%%%%%%%%%%%",
"%%%%%%==%%%%==%%%%%%%%%%%%%%%%%%%%%%%%%%%%%%%%%%%%%%%%%%%%%%%%%%",
"%%%%%%%%==%%==%%%%%%%%%%%%%%%%%%%%%%%%%%%%%%%%%%%%%%%%%%%%%%%%%%",
"%%%%%%%%==%%==%%%%%%%%%%%%%%%%%%%%%%%%%%%%%%%%%%%%%%%%%%%%%%%%%%",
"%%%%%%%%==%%%%%%%%%%==%%%%%%%%%%%%%%%%%%%%%%%%%%%%%%%%%%%%%%%%%%",
"%%%%%%%%==%%%%%%%%%%==%%%%%%%%%%%%%%%%%%%%%%%%%%%%%%%%%%%%%%%%%%",
"%%%%%%%%==%%%%%%%%%%%%==%%%%%%%%%%%%%%%%==%%==%%%%%%%%%%%%%%%%%%",
"%%%%%%%%==%%%%%%%%%%%%==%%%%%%%%%%%%%%%%==%%==%%%%%%%%%%%%%%%%%%",
"%%%%%%%%%%%%%%%%%%%%%%==%%%%%%%%%%%%%%%%%%==%%%%%%%%%%%%%%%%%%%%",
"%%%%%%%%%%%%%%%%%%%%%%==%%%%%%%%%%%%%%%%%%==%%%%%%%%%%%%%%%%%%%%",
"%%%%%%%%%%%%%%%%%%%%%%==%%%%%%%%%%%%%%%%%%%%%%%%%%%%%%%%%%%%%%%%",
"%%%%%%%%%%%%%%%%%%%%%%==%%%%%%%%%%%%%%%%%%%%%%%%%%%%%%%%%%%%%%%%",
"%%%%%%%%%%%%%%%%%%%%%%%%%%%%%%%%%%%%%%%%%%%%%%%%%%%%%%%%%%%%%%%%",
"%%%%%%%%%%%%%%%%%%%%%%%%%%%%%%%%%%%%%%%%%%%%%%%%%%%%%%%%%%%%%%%%",
"%%%%%%%%%%%%%%%%%%%%%%%%%%%%%%%%%%%%%%%%%%%%%%%%%%%%%%%%%%%%%%%%",
"%%%%%%%%%%%%%%%%%%%%%%%%%%%%%%%%%%%%%%%%%%%%%%%%%%%%%%%%%%%%%%%%",
"%%%%%%%%%%%%%%%%%%%%%%%%%%%%%%%%%%%%%%%%%%%%%%%%%%%%%%%%%%%%%%%%",
"%%%%%%%%%%%%%%%%%%%%%%%%%%%%%%%%%%%%%%%%%%%%%%%%%%%%%%%%%%%%%%%%"
};
