/* XPM */
static char *exit[] = {
/* columns rows colors chars-per-pixel */
"64 64 5 1 ",
"  c #78A158",
". c #C0D470",
"X c #DCB98A",
"o c #E8CFA6",
"O c #E8EEAA",
/* pixels */
"................................................................",
"................................................................",
"................................................................",
"................................................................",
"................................................................",
"................................................................",
"..............XXXXXXXXXXXXXXXXXXXXXXXXXXXXXXXXXXXX  ..  ........",
"..............XXXXXXXXXXXXXXXXXXXXXXXXXXXXXXXXXXXX  ..  ........",
"..........XXXXooooooooooooooooooooooooooooooooooooXXXX..........",
"..........XXXXooooooooooooooooooooooooooooooooooooXXXX..........",
"........XXooooooooooooooooooooooooooooooooooooooooooooXX........",
"........XXooooooooooooooooooooooooooooooooooooooooooooXX........",
"........XXooooooooooooooooooooooooooooooooooooooooooooXX........",
"........XXooooooooooooooooooooooooooooooooooooooooooooXX........",
"......XXooooooooooooooooooooooooooooooooooooooooooooooooXX......",
"......XXooooooooooooooooooooooooooooooooooooooooooooooooXX......",
"......XXooooooooooooooooooooooooooooooooooooooooooooooooXX......",
"......XXooooooooooooooooooooooooooooooooooooooooooooooooXX......",
"......XXooooooooooooooooooooooooooooooooooooooooooooooooXX......",
"......XXooooooooooooooooooooooooooooooooooooooooooooooooXX......",
"......XXooooooooooooooooooooooooooooooooooooooooooooooooXX......",
"......XXooooooooooooooooooooooooooooooooooooooooooooooooXX......",
"......XXooooooooooooooooooooooooooooooooooooooooooooooooXX......",
"......XXooooooooooooooooooooooooooooooooooooooooooooooooXX......",
"......XXooooooooooooooooooXXXXXXXXXXXXooooooooooooooooooXX......",
"......XXooooooooooooooooooXXXXXXXXXXXXooooooooooooooooooXX......",
"......XXooooooooooooooooXX............XXooooooooooooooooXX......",
"......XXooooooooooooooooXX............XXooooooooooooooooXX......",
"......XXooooooooooooooooXX............XXooooooooooooooooXX......",
"......XXooooooooooooooooXX............XXooooooooooooooooXX......",
"......XXooooooooooooooooXX............XXooooooooooooooooXX......",
"......XXooooooooooooooooXX............XXooooooooooooooooXX......",
"......XXooooooooooooooooXX............XXooooooooooooooooXX......",
"......XXooooooooooooooooXX............XXooooooooooooooooXX......",
"......XXooooooooooooooooXX............XXooooooooooooooooXX......",
"......XXooooooooooooooooXX............XXooooooooooooooooXX......",
"......XXooooooooooooooooXX............XXooooooooooooooooXX......",
"......XXooooooooooooooooXX............XXooooooooooooooooXX......",
"......XXooooooooooooooooooXXXXXXXXXXXXooooooooooooooooooXXOO....",
"......XXooooooooooooooooooXXXXXXXXXXXXooooooooooooooooooXXOO....",
"......XXooooooooooooooooooooooooooooooooooooooooooooooooXX......",
"......XXooooooooooooooooooooooooooooooooooooooooooooooooXX......",
"......XXooooooooooooooooooooooooooooooooooooooooooooooooXX......",
"......XXooooooooooooooooooooooooooooooooooooooooooooooooXX......",
"......XXooooooooooooooooooooooooooooooooooooooooooooooooXX......",
"......XXooooooooooooooooooooooooooooooooooooooooooooooooXX......",
"......XXooooooooooooooooooooooooooooooooooooooooooooooooXX......",
"......XXooooooooooooooooooooooooooooooooooooooooooooooooXX......",
"......XXooooooooooooooooooooooooooooooooooooooooooooooooXX......",
"......XXooooooooooooooooooooooooooooooooooooooooooooooooXX......",
"........XXooooooooooooooooooooooooooooooooooooooooooooXX........",
"........XXooooooooooooooooooooooooooooooooooooooooooooXX........",
"........XXooooooooooooooooooooooooooooooooooooooooooooXX........",
"........XXooooooooooooooooooooooooooooooooooooooooooooXX........",
"..........XXXXooooooooooooooooooooooooooooooooooooXXXX..........",
"..........XXXXooooooooooooooooooooooooooooooooooooXXXX..........",
"..............XXXXXXXXXXXXXXXXXXXXXXXXXXXXXXXXXXXX..............",
"..............XXXXXXXXXXXXXXXXXXXXXXXXXXXXXXXXXXXX..............",
"................................................................",
"................................................................",
"................................................................",
"................................................................",
"................................................................",
"................................................................"
};
