/* XPM */
static char *_e2022381f3141f3e5135ca1727dc8acHneKH2sjGcM9k3zz[] = {
/* columns rows colors chars-per-pixel */
"64 64 165 2 ",
"   c #220E0F",
".  c #23140F",
"X  c #261512",
"o  c #271A14",
"O  c #2B1917",
"+  c #2E151B",
"@  c #2F191D",
"#  c #311A1E",
"$  c #2F221A",
"%  c #33241F",
"&  c #351D22",
"*  c #381F25",
"=  c #3A1F29",
"-  c #362223",
";  c #3A2427",
":  c #362A22",
">  c #3A2D25",
",  c #3D232B",
"<  c #3E2B2C",
"1  c #3E3129",
"2  c #3F2530",
"3  c #40262E",
"4  c #412A2E",
"5  c #42332E",
"6  c #412630",
"7  c #432932",
"8  c #482F33",
"9  c #443232",
"0  c #493436",
"q  c #463931",
"w  c #4A3937",
"e  c #4B3738",
"r  c #4D3A3A",
"t  c #523E3F",
"y  c #4E443B",
"u  c #52413E",
"i  c #533F40",
"p  c #554142",
"a  c #594645",
"s  c #5A4946",
"d  c #5B4748",
"f  c #5C4B49",
"g  c #5B5147",
"h  c #5F5049",
"j  c #614E4E",
"k  c #63534E",
"l  c #62594F",
"z  c #665753",
"x  c #685655",
"c  c #675853",
"v  c #6A5A56",
"b  c #6D5D5A",
"n  c #705E5C",
"m  c #6D6357",
"M  c #6E635A",
"N  c #6C6F5C",
"B  c #71625D",
"V  c #756661",
"C  c #796765",
"Z  c #776B63",
"A  c #796965",
"S  c #7D6B69",
"D  c #80736C",
"F  c #80786D",
"G  c #877A72",
"H  c #887B73",
"J  c #8F897B",
"K  c #91847C",
"L  c #8E937C",
"P  c #9A8C85",
"I  c #9E9188",
"U  c #A69C92",
"Y  c #AA9F96",
"T  c #9EA78C",
"R  c #A1A78D",
"E  c #A2A790",
"W  c #ACA796",
"Q  c #A7AA95",
"!  c #AAA996",
"~  c #ADA399",
"^  c #AFA999",
"/  c #B2AA9C",
"(  c #B4B29E",
")  c #B5ABA1",
"_  c #B6B3A2",
"`  c #BAB5A4",
"'  c #BFB6AB",
"]  c #BFB9A9",
"[  c #C1B7AD",
"{  c #C2BDAC",
"}  c #C6BEB3",
"|  c #C2C1AD",
" . c #C7C0B0",
".. c #CAC5B5",
"X. c #CBC8B5",
"o. c #CDC5BA",
"O. c #CECCB9",
"+. c #D1CEBB",
"@. c #D2D2BD",
"#. c #D3DCBE",
"$. c #D7CFC2",
"%. c #D5D7C1",
"&. c #DAD5C4",
"*. c #D6DBC1",
"=. c #DBD8C5",
"-. c #DDD5C9",
";. c #DEDECA",
":. c #E0DDCA",
">. c #E5DDD0",
",. c #DEE2CA",
"<. c #E2E4CC",
"1. c #E6EACF",
"2. c #E6E4D1",
"3. c #E9E6D3",
"4. c #EBEBD6",
"5. c #EEEED9",
"6. c #F4EEDE",
"7. c #EDF5D6",
"8. c #EEF8D6",
"9. c #EEF6D9",
"0. c #EFF8D9",
"q. c #F3F7DC",
"w. c #F1F6DA",
"e. c #F1F8D9",
"r. c #F2F8DC",
"t. c #F3F9DD",
"y. c #F5FBDF",
"u. c #F7FEDF",
"i. c #F6FDDE",
"p. c #F2FADC",
"a. c #F7EFE2",
"s. c #F6EFE1",
"d. c #F5F7E1",
"f. c #F5F4E1",
"g. c #FBF5E7",
"h. c #F9F7E2",
"j. c #F6FAE1",
"k. c #F7FBE0",
"l. c #F7FBE2",
"z. c #F7FDE1",
"x. c #F5FEE1",
"c. c #F7FDE3",
"v. c #F6FFE2",
"b. c #F4FDE2",
"n. c #F6FFE4",
"m. c #F7FFE5",
"M. c #F6FCE1",
"N. c #F8FCE1",
"B. c #F8FCE3",
"V. c #F9FDE2",
"C. c #F8FEE2",
"Z. c #FAF9E5",
"A. c #FAFAE5",
"S. c #FCFBE6",
"D. c #FCFBE7",
"F. c #F9FDE4",
"G. c #FAFCE6",
"H. c #FAFCE7",
"J. c #FBFDE7",
"K. c #F8FEE4",
"L. c #FDFFE7",
"P. c #FAFDE4",
"I. c #FEFEEA",
"U. c #FFF9EC",
"Y. c #FEFDE9",
/* pixels */
"T T T T T T T T T T T T T T T T T T T T T T T T T T T T T T T T T T T T T T T T T T T T T T T T T T T T T T T T T T T T T T Q N ",
"n.v.v.v.b.n.n.n.n.n.n.n.n.n.n.n.n.v.n.v.v.v.n.v.n.n.n.n.n.v.n.n.n.n.n.n.n.n.n.v.v.i.v.i.v.v.n.v.n.n.n.P.n.n.n.n.n.n.b.b.v.b.I.Q ",
"7.7.7.7.7.4.7.4.7.4.7.4.4.7.7.4.7.1.7.4.4.4.7.7.4.7.4.7.7.1.7.4.7.7.4.4.1.7.7.4.1.7.4.7.7.4.4.7.4.7.4.7.7.1.7.4.7.1.7.7.7.4.n.T ",
"7.7.7.7.M.P.Z.Z.l.H.l.H.n.H.H.l.P.Z.Z.D.v.P.n.Z.n.P.Z.Z.Z.D.D.D.Z.Z.n.H.H.J.P.Z.P.S.S.S.Z.V.P.P.n.J.Z.Z.P.Z.Z.U.l.H.l.P.0.7.l.R ",
"7.7.7.M.U c V B B n B B M B B B B B B n B M B B M M B B B n n B M V B M M V M B B B B B B B B M M B n B B B B B B B M Z ,.0.n.R ",
"7.7.7.P.S . # + # # # # + # + & # # # # @ @ @ # @ + # @ # # # # @ @ @ @ @ @ & @ # O # + # + # + + & # # # # # + # @ + ; %.d.P.R ",
"7.8.7.Z.H % 4 < 3 3 3 3 3 , 6 6 6 6 3 3 3 3 3 3 6 < 3 3 3 3 3 3 6 6 6 6 6 2 2 2 3 3 3 3 3 3 3 3 2 6 6 6 6 < 3 < 6 4 , 9 =.w.n.R ",
"7.7.7.Z.H # < , * % - - - - * - - - - - - - - - , , , , * * - - - - - - - & * * 3 # ; % = 3 3 ; - - - - * - * - = < , 9 =.w.n.R ",
"7.7.7.D.G # 3 * K o.{ ] | { { { { { { { { { { } j * 3 - P ..{ [ } ] { { { { { { { { { [ s - 3 3 ~ ..{ { { { } ' i = , 8 &.t.n.T ",
"7.7.7.D.G @ 4 % / L.b.i.v.i.u.Z.M.v.v.M.Z.v.M.U.n # 3 - [ I.M.i.M.M.V.v.M.M.Z.v.v.v.V.h.k - 3 4 &.L.M.v.l.M.v.f.f * ; 9 =.t.P.R ",
"7.7.7.h.G # 4 # W Z.7.7.7.7.7.7.7.7.7.7.7.7.7.q.v # 3 # ` Z.7.7.7.7.7.7.7.7.7.7.7.7.7.6.k # , 4 +.q.4.7.9.7.9.3.s * , 9 =.w.n.R ",
"7.7.7.L.H # 4 - W V.4.7.7.7.7.7.7.7.7.7.7.7.7.q.v # 7 # _ v.7.7.7.7.7.7.7.7.7.7.7.7.7.w.k # 3 < +.v.7.7.7.7.e.4.s * , 9 =.t.P.R ",
"7.7.7.S.H @ 4 # ! M.7.9.7.7.7.7.7.7.7.7.7.7.7.f.b # 3 % _ P.7.8.7.7.7.7.9.7.7.7.7.7.7.6.k * 3 < +.u.7.7.7.7.0.4.s * , 9 =.w.P.E ",
"7.7.7.P.H @ 4 * ~ l.7.7.7.7.7.7.7.7.7.0.7.7.7.f.b # 4 # _ P.7.7.7.7.7.7.7.9.7.7.7.7.e.w.k * , 4 +.u.7.7.7.4.e.4.s & , 9 =.t.n.E ",
"7.7.7.Z.H @ < - ! P.7.7.7.7.7.7.7.7.7.7.7.7.7.q.b # 7 * _ Z.4.7.7.7.7.7.7.7.7.7.7.7.7.4.k & 3 4 +.i.7.7.7.7.9.4.s & , 8 -.q.n.R ",
"7.7.7.Z.H @ 3 & ) U.Z.P.Z.Z.D.L.Z.H.H.J.Z.P.D.U.n # 4 # ' I.l.l.P.Z.J.H.P.J.H.H.Z.Z.Z.g.z & , 3 &.I.h.Z.H.H.H.f.f & , 9 =.w.n.R ",
"7.8.7.Z.G # 3 ; p v x x z z z z z z z z x z z x 8 = 6 = d v x z z x x x z z z z x z z z 8 = , 3 j x x z x x x z 7 , , 9 -.i.P.R ",
"7.7.7.S.G # 3 , * & & # & # & # # & # & & # & & = 6 3 , & & & # @ + # # + & + & & + & & = 3 , = & & # & # & & # = 3 = 9 =.e.n.R ",
"8.7.7.S.G # 3 3 3 3 3 3 3 3 3 3 3 < 3 3 6 6 = 6 3 = , , , 6 6 6 2 6 6 6 6 6 6 3 , 2 6 6 , , < , 3 6 , , 3 3 3 6 3 3 = 9 =.w.P.R ",
"7.7.7.D.G + 3 ; ; ; ; ; ; ; ; ; * , ; ; , = 2 = 6 = 3 6 , , , , , < 2 , , = 2 6 = , , < , ; ; ; ; ; ; ; ; ; ; ; = 3 = 9 =.w.v.R ",
"7.7.4.S.G # 4 % P $.....X...........o.+.x * 3 , , , 2 = , , , , , , , 2 , , , = 2 , , < ~ +.....X.X.....X.......p = ; 9 =.i.P.R ",
"8.7.7.S.G # 4 # / L.i.i.M.i.v.i.u.i.q.D.C # 6 , , < , , 3 2 , 6 , , 3 , , 3 3 3 , 2 , , +.V.i.M.v.v.M.i.i.v.S.q.f * , 9 =.w.n.R ",
"7.7.7.S.H # 4 # W Z.4.7.7.7.7.7.7.7.7.h.V # 3 , ; , ; ; ; , , ; , ; = , ; ; ; , = < = , ..Z.7.9.7.7.7.7.7.7.7.2.s * , 9 =.d.P.R ",
"7.8.7.L.H # 3 - ! v.7.7.7.7.7.9.4.4.3.6.V & 3 , 7 5 7 4 < 4 < 1 4 1 4 4 5 < 7 6 3 , , < } q.4.4.7.7.7.7.7.7.7.4.s * , 9 =.w.P.T ",
"7.7.7.S.H # 4 % W P.7.7.7.7.7.v.J u g s 8 , , * Y -.O.+.O.+.+.+.+.+.O.+.+.+.+.%.k * < , i f a g %.i.7.7.7.7.e.4.s & , 9 =.d.n.R ",
"7.8.7.S.H # 4 # W P.7.7.7.7.7.Z.Z X - * ; 3 6 ; } L.i.i.i.b.b.i.i.i.b.t.i.i.v.Z.v & 2 , * * & : O.t.7.7.7.7.9.4.s & 2 9 =.0.n.R ",
"7.7.4.P.H # 4 # / S.7.q.8.e.7.L.D # 3 3 , ; ; - [ M.4.7.7.7.7.7.7.7.7.7.7.7.7.q.c @ , , , 6 , 7 @.v.e.0.9.9.w.5.f & 2 < =.t.P.R ",
"7.7.7.P.H # 4 # U 6.2.3.4.2.2.6.S # 3 , < 9 9 1 | v.9.7.7.7.7.9.7.8.7.7.7.9.9.w.M < 9 9 6 , , < o.5.2.2.4.2.4.>.s - , 9 &.t.n.R ",
"8.7.4.P.H # 3 ; 0 u u t u u t u 8 , , - Y >.&.&.1.8.7.7.7.7.7.7.8.7.7.8.7.7.9.7.,.%.=.&.f & 2 , r p t u t t u i 7 , = 9 =.t.n.R ",
"7.7.7.S.G # 3 3 = ; * * * * * * = < , - ' J.w.t.e.7.e.8.7.e.8.7.9.7.9.9.7.9.7.9.p.p.i.f.z & 2 2 ; * * * * * * * , , ; 9 =.t.P.R ",
"8.8.7.S.G # 4 ; 3 ; 3 , , 3 3 3 = < , & _ v.7.7.7.7.0.7.7.8.9.7.7.7.7.7.7.7.7.e.7.7.7.6.k # < = , 2 < , , , , , , , , 9 =.w.n.R ",
"7.7.7.S.H # 3 3 3 4 4 4 , , , , 6 < < : _ b.7.7.7.7.7.7.0.8.7.9.7.0.9.7.7.7.e.7.7.7.7.7.l % < < , , , , < 4 4 < , 3 , 9 =.t.P.R ",
"7.7.7.S.G # 4 % I =.+.-.v & 2 - I ;.O.@.1.0.7.7.7.7.0.8.7.7.7.0.9.9.7.7.0.0.7.7.8.7.7.9.*.+.@.+.i & 3 ; / :.+.o.a = , 8 &.i.n.R ",
"q.7.4.S.G # 3 # / I.w.U.Z # 6 # ) P.0.0.0.7.7.0.0.7.7.7.7.0.8.8.9.9.0.0.7.7.0.7.8.8.7.8.e.i.Z.q.j & 3 ; +.P.i.6.j * ; 9 =.w.Z.R ",
"7.7.7.Z.H # 3 * ~ P.4.d.V @ 7 # / u.7.7.7.7.7.7.7.7.0.7.7.0.7.7.0.7.7.7.7.7.7.7.7.7.9.8.7.7.7.4.a & 3 ; ..i.7.3.a * , 8 =.e.n.R ",
"7.7.7.L.H # 4 % ^ V.7.l.V @ 7 # / V.7.0.7.7.8.7.7.7.7.7.7.7.7.7.7.7.0.7.0.7.0.7.0.7.7.7.7.7.8.5.s * , , ..u.7.4.s * ; 8 =.t.P.R ",
"7.8.7.D.H # 4 # ^ V.7.f.V + 7 # ^ V.7.7.7.7.7.7.0.8.0.7.0.7.7.0.7.7.7.7.7.7.0.7.0.7.8.7.7.7.7.4.s * , ; X.i.w.4.s * , 9 &.t.P.R ",
"7.7.7.D.G # 3 * ! V.4.h.V + 6 # ^ V.7.7.7.0.0.7.7.7.7.7.7.7.7.8.7.0.8.7.7.7.7.7.7.7.7.9.7.7.8.6.a & 3 ; X.p.7.3.s * , 8 =.t.n.R ",
"7.8.7.S.H # 4 # / L.9.Z.V & 6 # / V.7.7.7.7.7.7.8.7.7.7.7.7.7.0.0.7.7.0.0.7.7.0.0.7.8.7.7.7.8.4.s & 3 , X.P.i.4.s * , 9 =.t.P.R ",
"8.8.4.S.H # 4 # U 4.:.3.n & 7 # ^ V.4.7.7.0.7.0.7.7.7.0.0.7.7.8.7.7.7.7.7.7.7.7.7.7.9.9.8.7.8.4.a * 3 - [ 2.<.:.a * , 9 %.t.P.T ",
"7.7.7.S.G # 3 3 8 w w r 2 , 6 # ^ V.7.7.7.7.7.8.7.7.7.7.7.7.7.7.7.7.8.8.7.0.7.7.7.7.0.7.9.9.9.6.a & 3 ; 0 0 r e < , , 8 =.0.n.E ",
"8.7.7.L.G # 3 ; , ; * = , < 6 # ^ V.4.7.7.7.7.9.7.0.0.7.0.8.7.0.0.7.7.0.7.7.7.7.7.7.7.7.9.9.7.4.s & 3 3 ; ; = = , , = 9 -.d.n.R ",
"7.7.7.P.H + 3 3 = * = = , , 6 # ^ V.7.7.7.0.7.8.7.7.7.7.7.0.7.7.7.9.8.9.d.i.t.t.0.7.7.0.7.7.e.5.s & 3 = ; = = = , 6 = 9 =.0.P.R ",
"7.8.4.u.H + 3 ; 8 t e r 6 , 6 # ^ V.7.7.7.7.7.9.0.8.7.7.7.7.7.7.8.7.7.9.,.,.;.,.4.0.7.7.7.7.7.4.j & 3 3 0 t r e < = , 9 =.d.P.R ",
"8.7.7.S.H # 4 # ~ h.3.s.V & 6 @ ^ V.7.9.7.7.7.0.0.7.7.0.7.7.7.7.9.7.7.7.z % 4 : | i.7.7.7.7.e.4.a * 3 3 ..s.5.3.d * , 9 =.t.n.T ",
"7.8.4.S.H # 4 % ^ V.7.D.V @ 7 % ^ V.4.7.8.9.7.7.8.7.7.7.8.7.0.7.7.7.9.6.k # , : | b.7.7.7.7.e.5.a # 3 ; ..v.e.4.s * , 9 =.d.P.R ",
"7.8.8.u.H # 4 # ~ V.4.l.V + 6 # ^ V.7.7.7.0.7.8.7.7.7.7.0.7.0.7.7.7.8.q.h @ ; # | v.7.7.7.7.8.4.j & , ; ..i.7.4.s & , 9 =.t.n.R ",
"7.7.4.S.H # 8 # ! P.7.l.V @ 6 @ ^ V.7.8.7.7.7.9.0.7.7.0.7.7.7.7.7.7.7.e.m 5 r q | i.7.7.7.7.0.4.a # 3 ; X.b.9.4.s = , 9 =.d.P.R ",
"7.7.7.D.H # 4 # ^ u.4.Z.B @ 6 # ! V.7.7.7.9.7.9.8.7.7.8.7.7.7.7.7.7.9.9.<.,.,.,.4.0.9.9.7.7.7.4.u # 3 3 ..i.e.4.s # ; 8 =.q.V.R ",
"8.7.7.S.H # 4 # ^ P.7.h.V # 7 # ^ V.7.7.7.7.7.9.7.9.7.9.7.0.0.7.7.7.9.9.e.e.t.i.8.7.9.9.7.7.8.6.j # 3 ; ..i.e.3.j ; 3 9 =.q.V.R ",
"8.7.7.S.H # 4 # W P.7.h.V @ 6 % ^ V.7.8.7.7.9.8.7.0.9.7.7.8.7.7.9.8.7.7.7.7.7.7.7.7.e.7.7.e.8.4.j # 3 ; ..i.8.3.a # 3 9 =.t.V.R ",
"7.8.4.S.H # 4 # / D.q.g.V & 6 @ ^ Z.7.9.9.7.7.7.7.7.7.8.7.7.0.7.9.7.e.7.7.9.7.7.0.7.7.7.7.7.8.4.a # 3 ; +.S.6.6.s * 3 4 =.t.P.R ",
"7.7.4.P.G # 3 ; j C V C r = 6 # ^ V.7.7.0.7.7.7.7.0.7.0.7.7.0.7.7.7.7.8.7.7.7.7.7.7.7.7.7.7.e.6.s # 3 3 x B D n 8 , , 9 =.t.n.R ",
"7.8.7.S.G # 3 3 * + & & , , 2 # ^ V.4.7.7.7.8.7.7.7.7.7.7.7.7.7.7.0.9.7.7.0.7.0.7.0.0.7.7.7.7.4.j * 3 = * # # # , , = 9 =.e.n.R ",
"7.7.7.S.H # 4 ; < 6 6 6 < , 2 # ^ V.7.7.7.0.7.0.7.7.0.0.0.7.7.7.7.7.7.8.0.7.7.0.7.0.7.7.7.7.e.4.u # 7 3 3 3 3 3 2 2 , 9 =.t.P.R ",
"8.7.7.S.H + 4 3 ; - - - , 2 2 # ^ V.7.7.7.7.7.7.8.7.7.7.7.7.0.7.0.9.7.7.7.7.7.7.7.8.7.7.7.7.e.5.j # 3 3 ; % ; ; , , ; 9 =.w.n.R ",
"7.7.7.D.G # 4 - K } ' } x * 3 @ ^ V.7.7.7.9.0.7.7.7.7.7.0.7.7.0.7.7.0.7.7.0.7.7.7.8.0.7.0.7.9.4.d & 4 ; U } [ ' i = , 9 =.t.n.T ",
"7.7.7.D.G @ 4 # ) U.i.U.C @ 7 @ ^ V.7.7.7.7.7.7.7.0.7.7.7.7.7.7.7.7.7.7.7.8.0.7.7.7.7.7.7.7.9.4.a & < ; +.L.V.s.f & ; 9 &.t.P.R ",
"7.7.7.Z.H # 3 * ! Z.4.q.V @ 7 - ! P.7.0.7.7.7.0.8.0.7.0.7.7.7.7.0.7.7.7.7.7.7.7.7.0.0.7.7.7.0.5.f * , ; ..i.7.3.f ; , 9 =.t.n.R ",
"7.7.7.P.F X : o ! u.7.i.M X : . Q 0.7.7.7.8.0.7.7.7.7.7.0.8.7.7.7.7.0.7.7.0.7.7.7.7.7.7.7.7.8.7.u O * $ ..M.9.4.p O & > &.t.P.R ",
"8.7.8.e.O.( ` _ *.e.0.0.X.( ` ( ,.0.0.7.7.7.0.0.7.7.7.0.0.7.0.7.7.7.0.0.7.7.7.0.0.7.7.7.9.7.9.7.| _ ` _ <.0.8.7.| _ ` ` 1.7.n.R ",
"7.7.7.7.t.P.P.v.e.7.7.0.d.v.V.V.0.8.7.7.7.7.7.0.7.7.7.7.0.8.7.7.7.7.7.0.7.7.7.7.7.7.7.7.7.7.7.9.i.Z.Z.i.0.7.7.0.v.P.P.V.0.7.P.T ",
"i.0.0.b.0.9.e.9.i.e.0.0.0.0.e.9.8.0.0.0.0.0.0.0.0.8.0.0.8.0.0.0.8.0.0.0.0.8.0.0.0.0.t.0.0.t.0.t.e.e.e.e.e.e.i.0.9.9.9.9.0.0.P.E ",
"#.#.#.#.#.#.*.#.#.#.*.#.*.*.#.%.#.*.*.#.#.#.*.*.*.#.*.#.#.#.*.*.#.*.*.#.#.#.#.,.#.#.*.#.#.#.#.%.#.#.*.#.#.#.*.*.#.#.#.*.*.#.,.L "
};
