/* XPM */
static char *floor[] = {
/* columns rows colors chars-per-pixel */
"64 64 3 1 ",
"  c #78A158",
". c #C0D470",
"X c #E8EEAA",
/* pixels */
"................................................................",
"................................................................",
"................................................................",
"................................................................",
"................................................................",
"................................................................",
"........................  ........................  ..  ........",
"........................  ........................  ..  ........",
"......................  ............................  ..........",
"......................  ............................  ..........",
"......................  ........................................",
"......................  ........................................",
"........  ......................................................",
"........  ......................................................",
"..........  ....................................................",
"..........  ....................................................",
"..........  ........  ..........................................",
"..........  ........  ..........................................",
"..................  ............................................",
"..................  ............................................",
"..................  ..................  ..  ....................",
"..................  ..................  ..  ....................",
"........................................  ......................",
"........................................  ......................",
"................................................................",
"................................................................",
"................................................................",
"................................................................",
"................................................................",
"................................................................",
"................................................................",
"................................................................",
"................................................................",
"................................................................",
"................................................................",
"................................................................",
"................................................................",
"................................................................",
"......................................................XX..XX....",
"......................................................XX..XX....",
"........................................................XX......",
"........................................................XX......",
"..............XX................................................",
"..............XX................................................",
"............XX..................................................",
"............XX..................................................",
"......XX....XX..................................................",
"......XX....XX..................................................",
"........XX..XX..................................................",
"........XX..XX..................................................",
"........XX..........XX..........................................",
"........XX..........XX..........................................",
"........XX............XX................XX..XX..................",
"........XX............XX................XX..XX..................",
"......................XX..................XX....................",
"......................XX..................XX....................",
"......................XX........................................",
"......................XX........................................",
"................................................................",
"................................................................",
"................................................................",
"................................................................",
"................................................................",
"................................................................"
};
