/* XPM */
static char *d4a3b2beacf94858f17e0b637c20765auFnGSQ2xG1jyl1BU[] = {
/* columns rows colors chars-per-pixel */
"64 64 127 2 ",
"   c #23110F",
".  c #230E12",
"X  c #261214",
"o  c #291417",
"O  c #261913",
"+  c #2B1917",
"@  c #271718",
"#  c #2C151D",
"$  c #2E1A1B",
"%  c #30171D",
"&  c #311B1E",
"*  c #31231E",
"=  c #2D1620",
"-  c #351D23",
";  c #381E26",
":  c #391F28",
">  c #352222",
",  c #3A2327",
"<  c #372922",
"1  c #3A2925",
"2  c #3E232C",
"3  c #3D2B2B",
"4  c #3D332A",
"5  c #3D2630",
"6  c #3F2930",
"7  c #40252E",
"8  c #412A2E",
"9  c #41322F",
"0  c #422630",
"q  c #432B31",
"w  c #443231",
"e  c #493535",
"r  c #443A31",
"t  c #493D37",
"y  c #4B3738",
"u  c #4C3A3A",
"i  c #513D3E",
"p  c #4F403D",
"a  c #52413E",
"s  c #533F40",
"d  c #554343",
"f  c #594745",
"g  c #564A42",
"h  c #594945",
"j  c #5B4748",
"k  c #5C4B4A",
"l  c #5E514B",
"z  c #614E4D",
"x  c #61524E",
"c  c #625A4F",
"v  c #645552",
"b  c #685455",
"n  c #665953",
"m  c #695B56",
"M  c #6D5D59",
"N  c #715F5D",
"B  c #6B6157",
"V  c #6E645A",
"C  c #72645E",
"Z  c #766661",
"A  c #766C63",
"S  c #7D766B",
"D  c #847E72",
"F  c #887B73",
"G  c #898174",
"H  c #8E8679",
"J  c #91827D",
"K  c #948580",
"L  c #9F928C",
"P  c #A49D91",
"I  c #A99C96",
"U  c #9FA58D",
"Y  c #9FA88D",
"T  c #A0A68C",
"R  c #A3A591",
"E  c #ABA197",
"W  c #AAAC97",
"Q  c #AEA49A",
"!  c #B4AF9F",
"~  c #B4B19E",
"^  c #B5ACA1",
"/  c #B7B3A2",
"(  c #BAB4A5",
")  c #BEB4AA",
"_  c #BEBBAA",
"`  c #C1B7AD",
"'  c #C2BCAC",
"]  c #C5BDB0",
"[  c #C9BFB5",
"{  c #C2C0AD",
"}  c #C5C1B1",
"|  c #C9C5B3",
" . c #C7C9B3",
".. c #CBC9B6",
"X. c #CDC6B9",
"o. c #CDCBB8",
"O. c #D1CCBC",
"+. c #D2D2BD",
"@. c #D6CEC3",
"#. c #D6D3C0",
"$. c #DAD5C5",
"%. c #DAD9C5",
"&. c #DED7CA",
"*. c #DDDEC9",
"=. c #E1DDCB",
"-. c #E7DFD2",
";. c #DFE1CA",
":. c #E1E3CC",
">. c #E7E5D1",
",. c #E9E7D3",
"<. c #E7EBD1",
"1. c #EBECD6",
"2. c #ECE6D8",
"3. c #EDEDD8",
"4. c #F0EFDA",
"5. c #ECF5D6",
"6. c #EEF8D6",
"7. c #EEF6D8",
"8. c #EFF8D9",
"9. c #F2F5DC",
"0. c #F3FADD",
"q. c #F7EFE2",
"w. c #F6F5E1",
"e. c #F9F5E4",
"r. c #F7FCE1",
"t. c #F9FCE4",
"y. c #FFFDEA",
/* pixels */
"2 2 2 2 2 2 2 2 2 2 : 7 2 7 : 7 2 2 2 2 2 5 2 2 2 2 2 2 2 2 2 2 2 2 2 2 2 2 2 2 2 2 2 2 2 2 2 2 : 2 2 2 7 2 2 : 7 7 2 2 : 2 2 = ",
"2 2 2 2 2 2 2 2 2 2 2 2 7 7 : 7 5 5 2 0 5 2 5 2 2 0 0 2 2 2 0 2 2 2 2 2 7 2 2 2 2 2 2 2 2 2 2 2 7 7 : 2 7 : 2 2 : 7 7 7 7 2 2 # ",
"2 2 2 2 2 2 2 2 2 2 2 2 2 2 7 : - - ; ; ; ; ; ; ; ; ; ; ; - ; , 2 2 2 2 2 2 2 , 2 2 2 2 2 2 2 2 : 2 7 7 2 2 7 7 7 : 7 : 2 2 2 = ",
"2 2 2 2 2 2 2 2 2 2 2 2 2 7 7 0 s s s s i a s a i a s i i a a u 2 2 2 7 2 7 2 7 2 2 2 2 2 2 2 2 7 2 2 2 7 7 : 7 7 2 7 7 : 2 2 = ",
"2 2 2 2 2 2 2 2 7 : : 7 : 7 ; j -.,.>.>.,.<.,.<.<.,.<.>.,.>.3.X.7 2 7 7 2 2 2 2 2 2 2 2 2 2 2 2 7 7 : 7 7 7 2 : 2 2 2 2 2 2 5 # ",
"2 2 2 7 2 2 2 2 7 7 7 , 7 7 ; j 7.0.7.r.7.8.9.8.8.7.9.8.8.8.r.#.8 : 7 7 2 2 , 7 2 2 2 2 2 2 2 2 7 : 2 2 7 : 2 7 2 2 2 2 2 2 5 # ",
"2 2 2 2 2 2 2 2 7 : 7 7 7 : % s 1.5.5.5.7.5.5.5.7.5.5.5.7.5.8.+.1 , : : 2 2 7 7 2 2 2 2 2 2 2 2 7 : 7 2 7 7 7 7 2 2 2 2 : 5 5 # ",
"2 2 2 2 2 2 2 2 : 7 7 7 e y w b 3.7.5.5.7.7.5.7.7.7.5.5.7.5.0.+.t e y e , 7 7 : 2 2 2 2 2 2 2 2 2 2 7 2 2 : 7 : 2 2 2 2 2 : 5 # ",
"2 7 2 2 2 2 7 : 7 7 , y =.-.=.:.5.7.7.6.5.5.6.5.7.7.7.5.5.5.7.5.:.=.1.` , 7 7 7 : : 7 7 2 2 2 2 7 2 7 7 : 7 7 7 2 2 2 2 2 2 2 # ",
"2 : 2 2 2 2 7 2 : 7 ; u 4.0.8.8.7.7.5.5.7.9.5.5.7.7.5.5.5.5.5.5.8.8.0.O.& 7 , 7 7 7 : 7 2 2 2 2 : 2 2 : 7 2 2 : 2 2 2 2 2 2 2 # ",
"2 2 2 2 : 7 7 2 7 7 - y 1.6.6.6.r.0.0.0.7.5.7.7.5.7.5.7.0.0.r.8.6.1.0.O.* 7 7 : 2 7 7 7 2 2 2 2 7 7 2 2 7 : 2 2 2 2 2 2 : 5 2 # ",
": 7 2 2 2 7 2 2 7 7 ; y 1.8.6.1.*.*.*.;.5.7.5.6.7.7.5.5.;.;.;.;.9.6.0.O.& 7 7 7 2 7 : 2 2 2 2 2 7 : 2 2 7 7 2 2 2 2 2 2 2 5 7 # ",
"7 7 7 2 2 2 2 2 2 2 ; u 4.9.0.O.4 3 3 g <.8.5.7.7.5.r. .4 3 1 h 1.6.0.O.; 7 : 7 2 2 2 2 2 2 2 2 7 2 : 0 : 7 7 7 : 2 : 7 2 2 2 = ",
"7 : 2 2 2 2 2 2 2 7 ; u 1.9.0.O.1 3 ; u <.8.5.5.7.5.r. .1 2 - f 1.6.0.o.* 7 7 7 7 : 7 7 7 : 2 2 2 2 7 2 7 0 : 7 0 2 0 7 5 : 0 # ",
"2 2 2 : 2 2 2 2 2 7 : y 4.8.0.+.< - - t >.8.5.5.6.5.r.} * > @ d 1.6.0.O.& 7 7 7 7 : 7 : 7 2 2 2 2 7 : 7 2 : 7 7 7 : 7 : : 5 5 # ",
"7 2 7 7 2 2 2 2 2 7 , y 1.8.0.+.h h d m <.8.5.6.5.5.r.o.g h d V 1.6.t.o., 7 7 : 2 7 7 2 2 2 2 2 2 7 : 7 2 2 2 : 7 7 0 : 0 : 2 # ",
": 7 2 2 : 7 : 7 2 7 ; y 3.9.7.5.3.5.3.3.5.7.5.7.5.5.6.7.5.1.3.5.9.6.0.o.- 2 2 2 2 2 2 2 2 2 2 2 2 7 2 2 2 2 : 2 2 2 2 2 2 : 5 # ",
": 7 2 2 7 7 2 7 2 7 ; y 1.7.5.7.8.5.7.7.5.5.7.5.7.5.5.5.7.7.8.7.1.6.0.o.- 2 2 2 2 2 2 2 2 2 2 2 : 7 2 2 7 7 7 7 : 2 7 7 2 2 2 = ",
"7 2 2 7 2 2 2 : 2 2 ; i 4.r.0.8.5.5.7.7.7.5.7.7.5.7.6.6.5.5.5.5.0.0.0.O.& 7 2 2 2 2 2 2 2 2 2 7 7 7 7 : 7 : 2 2 7 : 7 : 2 2 5 # ",
"7 2 : 7 2 2 7 7 2 7 ; y $.&.%.%.7.5.7.7.5.7.7.7.7.5.5.7.5.5.7.5.%.#.-.` ; 7 2 2 2 2 2 2 2 2 2 2 2 : 7 7 7 7 : 2 7 7 7 2 2 2 2 # ",
"2 2 2 2 : 7 : 7 2 2 2 2 w 9 8 x 5.8.5.5.7.7.5.6.6.5.7.7.6.5.r.+.r w e q 2 2 2 2 2 2 : 2 2 2 2 2 2 : : 7 7 2 7 2 2 2 2 2 2 2 5 # ",
"2 2 2 2 7 7 2 7 2 2 2 2 , 7 + i 3.8.5.5.5.5.5.7.5.5.7.7.5.5.r.+.8 * : , 7 7 7 7 2 2 2 2 2 2 2 2 2 0 2 2 2 2 7 : 2 2 2 2 2 2 2 # ",
"2 2 2 7 2 2 2 : 2 2 , 7 7 7 ; z 5.7.5.5.5.5.7.5.5.6.5.5.7.5.0.+.8 : 7 7 ; ; ; ; 2 2 2 2 2 2 2 2 2 7 7 7 2 0 7 7 2 2 2 2 5 2 5 # ",
"2 2 7 : 2 2 7 7 2 7 : 7 7 7 % f 1.7.5.8.6.6.5.6.7.5.7.6.5.5.0.+.8 7 7 7 f s s y 2 2 2 2 2 2 2 2 7 : : 7 2 : : 7 2 2 2 : 5 2 3 # ",
"2 2 2 2 2 2 : 2 2 7 7 7 2 7 ; f 1.7.5.7.6.7.5.5.5.5.5.5.7.5.0.#.8 7 ; z e.4.t.' > 2 2 2 5 : 2 2 7 : 2 2 2 2 2 2 2 : 2 2 2 2 2 = ",
"2 2 2 2 2 7 7 7 7 : : 7 2 7 ; f 1.7.<.5.6.6.5.5.5.5.5.5.5.5.9.O.8 , & z 9.1.0.' 3 5 0 2 5 0 2 2 7 2 2 7 : 2 2 2 2 2 2 2 2 2 2 # ",
"2 2 2 2 : 7 7 7 : 7 7 7 2 7 ; j w.t.r.r.0.t.t.0.r.r.0.0.t.r.y.$.8 , ; z t.0.y.] $ - - ; : 2 2 2 2 2 : 7 7 7 2 2 2 2 2 2 2 2 5 # ",
"2 2 2 2 7 7 : : 7 7 7 : 2 7 ; s [  . . .| | ..| | | | | | } O.! 1 7 ; a O.| O.Q k v v j 7 2 2 2 : 7 2 2 2 2 2 2 2 2 2 2 2 2 2 # ",
"2 2 7 7 : 7 7 7 7 : : 7 : 7 2 : 2 1 , 1 3 3 , , 1 3 3 , 3 , , 3 2 2 2 2 7 3 & m w.3.t.X.3 2 2 2 7 2 2 2 2 2 2 2 2 2 2 2 2 2 5 # ",
"2 2 7 2 : 7 7 : 7 7 7 7 2 2 2 2 5 5 2 2 2 : 2 2 2 2 2 2 2 2 2 2 2 2 7 2 7 7 & M 9.5.t..., 2 5 5 7 0 2 2 2 2 2 2 2 2 2 2 2 2 5 # ",
"2 7 2 2 7 7 7 7 : 7 : : 2 2 : 2 ; ; ; ; 2 7 7 2 2 2 2 2 7 2 2 2 > ; ; ; - ; o m w.5.r. .& - ; ; - - ; ; 2 2 2 : 2 2 2 2 2 2 5 # ",
"2 2 2 2 7 : : 7 7 7 7 7 2 2 7 0 f f f d 2 2 2 2 2 2 2 2 2 2 2 8 f h h h h f u D 0.5.r.o.g f j j j f j s 2 2 2 2 2 2 2 2 2 , 5 # ",
"2 2 2 2 : 7 2 2 2 2 2 2 2 7 - h 2.1.4.$.q ; 2 2 7 2 2 2 2 2 ; f ,.3.1.1.4.1.1.1.7.7.6.9.1.1.1.4.1.1.e.^ - 2 2 2 2 2 2 2 2 2 2 o ",
"2 2 2 7 7 2 2 7 2 2 2 2 2 7 ; h 9.9.r.%.w 2 2 2 : 2 2 7 2 8 , f 1.9.6.6.9.6.6.6.7.7.6.6.6.5.6.6.5.1.t.( , 7 7 7 2 2 2 2 2 2 2 # ",
"2 2 : 7 7 : : 7 2 2 2 2 2 7 - h 1.7.9.%.w , 7 2 7 7 2 , & ; o a 9.t.0.0.0.0.e.0.8.7.6.8.r.r.r.r.r.0.y.( + - - ; 7 2 2 2 2 2 2 # ",
"2 2 2 2 7 7 2 2 2 2 2 2 2 7 > f 1.7.0.%.9 , 2 7 2 2 2 q z k f C X.O.o.o.O.o.o.$.7.6.7.<.o...o.o.o.o.#.I f k z d , 7 2 2 2 2 3 # ",
"2 2 2 2 7 7 : 2 2 2 2 2 2 7 - f 1.5.9.%.w : 7 2 2 7 & b e.e.t.#.< ; * ; * , X c 9.5.0. .* > > * - < X C y.9.t.[ > 2 2 2 2 2 2 # ",
"2 2 2 2 : 7 7 7 2 2 : 7 2 7 - f 4.6.0.%.w : 7 2 7 7 - z 4.5.0.@.8 7 7 0 8 q ; M 9.5.r...3 7 7 7 0 0 & Z 9.1.w.' 3 0 0 2 2 2 5 # ",
"2 2 2 2 2 2 2 2 2 7 7 7 2 7 * f 1.7.9.%.w ; 7 2 2 7 & v 4.5.0.+.* & & & & &   c w.5.0. .$ & - & - -   C y.r.y.| o - = ; 2 2 2 # ",
"2 2 2 2 7 7 : 2 2 7 : 2 7 7 ; f 1.6.0.%.w : 7 2 2 2 - z 9.5.0.%.V m M M M M v H 8.6.0.+.B m M m m M v F ' ' ] Q n n N k , 2 5 # ",
"2 2 7 2 2 2 : 7 2 2 7 2 2 7 - f 4.6.0.%.9 , 7 7 2 7 - v 9.7.7.7.9.9.9.0.0.9.e.9.7.5.7.7.9.0.9.9.0.9.y.( * , % b e.w.y.) $ 2 0 # ",
"2 2 7 : 2 2 2 7 2 : 2 2 2 7 - f 1.9.9.%.w , 7 7 7 8 - x 4.5.5.7.6.5.6.1.6.7.7.5.7.6.7.5.5.7.7.5.6.1.r.^ & 7 & m w.5.t.) $ 7 2 # ",
"2 2 2 2 7 7 2 2 2 2 2 2 2 7 - f 1.6.9.%.w : 7 : ; - o z t.t.0.0.0.0.0.t.0.0.0.0.5.6.7.7.0.t.0.r.r.9.y.( > 8 - m 9.1.t.( $ 2 5 # ",
"2 2 2 2 : 7 : 2 2 2 2 2 2 7 ; f 1.8.0.=.w : 2 8 x x j Z X.| o.| ..o...........+.7.6.7.<. .| o.| ..| @.L , 7 & m w.5.t.( $ 7 7 # ",
"7 : 2 2 7 2 2 2 2 2 2 2 2 0 - h 1.6.0.+.w , ; a q.4.t.| < , , , 7 1 , 3 1 3 & m 9.5.r. .< 2 3 , 3 , 3 , 2 7 & m 9.5.y.( $ 7 2 # ",
"7 2 2 2 7 2 2 2 2 2 2 2 7 0 > j 1.6.0.=.w 7 , f 9.1.r.| , 2 2 2 7 7 7 7 7 7 & M 9.5.r. .3 2 7 7 2 7 7 2 2 7 - m 9.6.t.( & 7 7 # ",
"2 2 2 2 2 2 2 2 2 2 2 2 - - o i 1.8.0.%.* % o u t.t.y.O.3 2 7 2 & & & & & - X c 9.5.0. .$ & - & % - % ; 7 7 - M 0.1.t.( $ 7 7 # ",
"2 2 2 2 2 2 7 7 2 2 2 0 b b z S 5.6.8.:.V v v C ] ' X.I 1 2 2 q b n b b v n l G 9.7.0.+.c n n v b b m j , 7 - m 0.1.t.( $ 2 7 # ",
": 2 : 7 2 2 7 7 : 7 : y q.e.e.t.5.7.7.7.r.e.y.&.* & & - 2 7 - k q.t.t.t.t.t.t.0.5.5.7.7.t.t.t.t.t.e.y.) - 8 - m e.5.t.( & 7 7 # ",
"7 7 7 7 7 7 : 7 7 7 : y 2.4.5.1.6.7.7.5.5.1.9.O., 7 0 2 2 2 ; f 2.5.1.5.5.5.5.5.1.5.5.5.5.5.5.5.5.<.t.^ & 7 - n 9.<.t.( # 7 2 # ",
"7 : 7 : 2 : 7 : 2 2 ; s 9.t.t.0.7.7.7.8.0.t.y.=., 2 7 2 2 7 ; j w.t.t.r.5.5.7.0.t.t.t.r.7.5.7.8.t.r.y.) - 7 - M t.t.y.` # 5 7 # ",
"7 7 7 7 2 2 7 7 2 7 : q ^ ( ~ ' 5.7.7.<./ ~ ` P , 2 2 2 2 7 , i ^ ( ^ } 7.5.8.;.~ ( / { 7.5.8.;.! / ` J ; 2 ; z ( ^ ` K - 2 3 # ",
": 7 : 7 7 : : 7 7 7 7 , ; * & a 1.7.9.%.1 $ - - 2 2 2 2 2 2 2 , > ; @ g w.5.r._ + > + h w.5.r.{ O - - > 2 2 2 : - - - , 2 2 2 # ",
"7 7 7 7 7 7 7 7 : 7 : 7 7 7 ; f 3.5.9.%.w 2 7 7 2 2 2 2 2 2 2 2 5 5 ; k 9.5.t.' < 8 ; v 4.5.t.] > 2 0 7 2 2 2 0 2 2 2 2 2 2 3 # ",
": : 7 : : : 7 : 7 7 , 7 7 7 ; f w.t.t.=.e , 2 2 2 2 2 2 2 2 2 2 2 2 - k r.5.t._ , 7 - z 9.5.t.} & 3 2 2 2 : 0 : 2 2 2 2 2 2 5 # ",
"7 7 7 7 7 7 7 7 2 2 7 7 7 7 ; a ` ] } ^ 8 2 7 2 2 7 2 2 2 2 2 2 2 2 - l w.5.t._ , 7 ; x 7.5.t.} & 2 2 2 2 5 : 0 2 2 2 2 2 2 7 # ",
"7 , 2 2 2 : 2 2 2 2 7 : 7 : 7 , , > > ; 2 2 7 2 2 2 2 2 2 2 2 2 2 5 - k r.5.r._ > 0 ; v 7.5.t.{ - 0 : 5 2 2 2 2 2 2 2 2 2 , 2 # ",
": 2 2 2 2 2 2 2 : 7 , 2 7 7 7 7 : 2 7 2 2 2 7 : 2 2 2 2 2 2 2 2 0 8 ; x w.7.t._ > 0 ; k 7.5.t.} - 0 0 2 2 2 2 2 2 2 2 2 2 2 2 # ",
"7 7 7 2 2 2 2 2 7 7 2 2 2 7 : 7 2 2 : 2 2 2 2 2 2 2 2 2 2 2 2 5 % $ . a 9.5.t.' > 5 ; x q.5.t._   = % ; 2 2 2 : 2 2 2 2 2 2 3 = ",
": 7 : 2 2 2 2 2 7 : 2 2 7 7 : 7 2 2 5 2 2 2 2 2 2 2 2 2 2 2 2 q C Z m G 9.5.t._ > 5 - l 7.5.0.O.m C Z z : 2 2 2 2 2 2 2 2 2 5 # ",
"7 2 2 2 2 2 3 2 2 2 2 2 : 2 2 2 2 2 2 2 2 , 2 2 : 2 2 2 2 0 ; j e.y.t.r.9.5.0.' * 5 > x 9.5.5.8.t.t.y.) - 3 2 2 2 2 2 2 2 : 2 # ",
"2 2 2 2 2 2 2 2 2 2 2 2 2 2 2 2 5 5 5 , 2 5 2 2 2 2 2 2 2 2 - h ,.5.1.5.5.5.t.( < 5 ; l 3.5.5.5.5.<.t.^ > 2 2 2 2 2 2 2 2 5 2 o ",
"2 2 2 2 5 5 2 5 5 2 2 3 5 2 2 2 5 1 2 5 5 2 2 5 5 2 2 5 2 5 - k w.t.t.r.t.r.y.| , 5 ; v t.t.r.t.t.r.y.) > 5 2 2 2 5 5 5 5 5 6 = ",
"# # # # = @ # # # # # # @ # # # # # # # # # # # # # # # # = @ 4 P R Y U Y U W D @ = X w R Y Y Y Y U W S @ @ = # # # = = # @ = . "
};
