/* XPM */
static char *wall[] = {
/* columns rows colors chars-per-pixel */
"64 64 14 1 ",
"  c #5F7A79",
". c #90625D",
"X c #AA7959",
"o c #78A158",
"O c #6E967C",
"+ c #B68962",
"@ c #C49A6C",
"# c #B7C973",
"$ c #C0D470",
"% c #97BB8E",
"& c #AED499",
"* c #C2E09A",
"= c #DDE2A6",
"- c #E8EEAA",
/* pixels */
"$$$$$$$$$$$$$$$$$$$$$$$$$$$$$$$$$$$$$$$$$$$$$$$$$$$$$$$$$$$$$$$$",
"$$$$$$$$$$$$$$$$$$$$$$$$$$$$$$$$$$$$$$$$$$$$$$$$$$$$$$$$$$$$$$$$",
"$$$$$$$$$$$$$$$$$$$$$$$$                  $$$$$$$$$$$$$$$$$$$$$$",
"$$$$$$$$$$$$$$$$$$$$$$$$                  $$$$$$$$$$$$$$$$$$$$$$",
"$$$$$$$$$$$$$$$$$$$$    %%&&&&&&&&&&&&%%%%  $$$$$$$$$$$$$$$$$$$$",
"$$$$$$$$$$$$$$$$$$$$    %%&&&&&&&&&&&&%%%%  $$$$$$$$$$$$$$$$$$$$",
"$$$$$$$$$$$$$$$$    %%&&&&&&******&&****&&%%    $$oo$$oo$$$$$$$$",
"$$$$$$$$$$$$$$$$    %%&&&&&&******&&****&&%%    $$oo$$oo$$$$$$$$",
"$$$$$$$$$$$$$$  %%&&&&&&&&&&******&&****&&&&%%%%  $$oo$$$$$$$$$$",
"$$$$$$$$$$$$$$  %%&&&&&&&&&&******&&****&&&&%%%%  $$oo$$$$$$$$$$",
"$$$$$$$$$$$$  %%&&******&&******&&&&&&&&&&&&&&&&%%  $$$$$$$$$$$$",
"$$$$$$$$$$$$  %%&&******&&******&&&&&&&&&&&&&&&&%%  $$$$$$$$$$$$",
"$$$$$$$$oo  %%%%&&************&&&&&&******&&&&&&%%%%  $$$$$$$$$$",
"$$$$$$$$oo  %%%%&&************&&&&&&******&&&&&&%%%%  $$$$$$$$$$",
"$$$$$$$$$$  &&&&&&&&&&****&&&&&&&&&&************%%%%  $$$$$$$$$$",
"$$$$$$$$$$  &&&&&&&&&&****&&&&&&&&&&************%%%%  $$$$$$$$$$",
"$$$$$$$$  %%&&&&&&&&&&&&&&&&&&&&&&&&&&&&&&******&&&&%%  $$$$$$$$",
"$$$$$$$$  %%&&&&&&&&&&&&&&&&&&&&&&&&&&&&&&******&&&&%%  $$$$$$$$",
"$$$$$$$$  %%&&&&&&&&&&&&&&&&&&&&&&&&&&&&&&&&&&&&&&&&%%  $$$$$$$$",
"$$$$$$$$  %%&&&&&&&&&&&&&&&&&&&&&&&&&&&&&&&&&&&&&&&&%%  $$$$$$$$",
"$$$$$$$$  %%%%%%&&&&&&%%%%&&&&&&&&&&&&%%%%%%&&&&%%%%%%  $$$$$$$$",
"$$$$$$$$  %%%%%%&&&&&&%%%%&&&&&&&&&&&&%%%%%%&&&&%%%%%%  $$$$$$$$",
"$$$$$$$$  %%%%%%&&&&&&%%%%&&&&&&&&&&&&%%%%%%&&&&%%%%  $$$$$$$$$$",
"$$$$$$$$  %%%%%%&&&&&&%%%%&&&&&&&&&&&&%%%%%%&&&&%%%%  $$$$$$$$$$",
"$$$$$$$$  %%%%%%%%%%%%%%%%%%%%%%&&&&%%&&&&&&%%%%%%%%  $$$$$$$$$$",
"$$$$$$$$  %%%%%%%%%%%%%%%%%%%%%%&&&&%%&&&&&&%%%%%%%%  $$$$$$$$$$",
"$$$$$$$$$$  %%%%%%&&&&&&%%%%%%%%%%%%%%%%%%%%%%%%%%%%%%  $$$$$$$$",
"$$$$$$$$$$  %%%%%%&&&&&&%%%%%%%%%%%%%%%%%%%%%%%%%%%%%%  $$$$$$$$",
"$$$$$$$$$$  %%%%%%%%%%%%%%%%%%%%%%%%%%%%%%%%%%%%%%%%%%  $$$$$$$$",
"$$$$$$$$$$  %%%%%%%%%%%%%%%%%%%%%%%%%%%%%%%%%%%%%%%%%%  $$$$$$$$",
"$$$$$$$$  OO%%%%%%%%%%%%%%%%%%%%%%%%%%%%%%%%%%%%%%%%OO  $$$$$$$$",
"$$$$$$$$  OO%%%%%%%%%%%%%%%%%%%%%%%%%%%%%%%%%%%%%%%%OO  $$$$$$$$",
"$$$$$$$$  OOOOOO%%OOOO%%%%OOOOOO%%%%%%%%%%OOOOOOOOOOOO  $$$$$$$$",
"$$$$$$$$  OOOOOO%%OOOO%%%%OOOOOO%%%%%%%%%%OOOOOOOOOOOO  $$$$$$$$",
"$$$$$$$$  OOOOOO%%OOOO%%%%OOOOOO%%%%%%%%%%OOOOOOOOOOOO  $$$$$$$$",
"$$$$$$$$  OOOOOO%%OOOO%%%%OOOOOO%%%%%%%%%%OOOOOOOOOOOO  $$$$$$$$",
"$$$$$$$$  OOOOOOOOOOOOOOOO%%%%%%%%%%OOOOOO%%%%%%OOOO  $$$$$$$$$$",
"$$$$$$$$  OOOOOOOOOOOOOOOO%%%%%%%%%%OOOOOO%%%%%%OOOO  $$$$$$$$$$",
"$$$$$$$$$$  OOOO%%%%%%OOOOOOOOOOOOOOOOOOOOOOOOOOOOOO  --$$--$$$$",
"$$$$$$$$$$  OOOO%%%%%%OOOOOOOOOOOOOOOOOOOOOOOOOOOOOO  --$$--$$$$",
"$$$$$$$$$$  OOOOOOOOOOOOOOOOOOOOOOOOOOOOOOOOOOOOOOOO  $$--$$$$$$",
"$$$$$$$$$$  OOOOOOOOOOOOOOOOOOOOOOOOOOOOOOOOOOOOOOOO  $$--$$$$$$",
"$$$$$$$$$$$$  OOOOOOOOOOOOOOOOOOOOOOOOOOOOOOOOOOOO  $$$$$$$$$$$$",
"$$$$$$$$$$$$  OOOOOOOOOOOOOOOOOOOOOOOOOOOOOOOOOOOO  $$$$$$$$$$$$",
"$$$$$$$$$$$$--    OOOOOOOOOOOOOOOOOOOOOOOOOO      $$$$$$$$$$$$$$",
"$$$$$$$$$$$$--    OOOOOOOOOOOOOOOOOOOOOOOOOO      $$$$$$$$$$$$$$",
"$$$$$$--$$$$--$$$$                          $$$$$$$$$$$$$$$$$$$$",
"$$$$$$--$$$$--$$$$                          $$$$$$$$$$$$$$$$$$$$",
"$$$$$$$$--$$--$$$$$$$$$$..XXXXXXXXXXXX..$$$$$$$$$$$$$$$$$$$$$$$$",
"$$$$$$$$--$$--$$$$$$$$$$..XXXXXXXXXXXX..$$$$$$$$$$$$$$$$$$$$$$$$",
"$$$$$$$$--$$$$$$$$$$--$$..++XXXXXXXX++..$$$$$$$$$$$$$$$$$$$$$$$$",
"$$$$$$$$--$$$$$$$$$$--$$..++XXXXXXXX++..$$$$$$$$$$$$$$$$$$$$$$$$",
"$$$$$$$$--$$$$$$$$$$$$==..++++++++++++..==$$--$$$$$$$$$$$$$$$$$$",
"$$$$$$$$--$$$$$$$$$$$$==..++++++++++++..==$$--$$$$$$$$$$$$$$$$$$",
"$$$$$$$$$$$$$$$$$$####==..++@@++@@@@@@..##==##$$$$$$$$$$$$$$$$$$",
"$$$$$$$$$$$$$$$$$$####==..++@@++@@@@@@..##==##$$$$$$$$$$$$$$$$$$",
"$$$$$$$$$$$$$$$$######..@@@@@@@@@@@@@@@@..######$$$$$$$$$$$$$$$$",
"$$$$$$$$$$$$$$$$######..@@@@@@@@@@@@@@@@..######$$$$$$$$$$$$$$$$",
"$$$$$$$$$$$$$$$$########@@@@@@@@@@@@@@@@########$$$$$$$$$$$$$$$$",
"$$$$$$$$$$$$$$$$########@@@@@@@@@@@@@@@@########$$$$$$$$$$$$$$$$",
"$$$$$$$$$$$$$$$$$$############@@@@############$$$$$$$$$$$$$$$$$$",
"$$$$$$$$$$$$$$$$$$############@@@@############$$$$$$$$$$$$$$$$$$",
"$$$$$$$$$$$$$$$$$$$$$$$$$$$$$$$$$$$$$$$$$$$$$$$$$$$$$$$$$$$$$$$$",
"$$$$$$$$$$$$$$$$$$$$$$$$$$$$$$$$$$$$$$$$$$$$$$$$$$$$$$$$$$$$$$$$"
};
