/* XPM */
static char *_79b30a43bb44ebebdb03392f103133dHFqm2qR184aevNmv[] = {
/* columns rows colors chars-per-pixel */
"64 64 170 2 ",
"   c #23120F",
".  c #2A1417",
"X  c #2D171A",
"o  c #2F191C",
"O  c #31171E",
"+  c #311B1E",
"@  c #33211F",
"#  c #311720",
"$  c #351D22",
"%  c #391F26",
"&  c #391F28",
"*  c #362223",
"=  c #392326",
"-  c #3D232B",
";  c #3F2A2D",
":  c #41262E",
">  c #42292F",
",  c #43312F",
"<  c #422730",
"1  c #432B31",
"2  c #482F35",
"3  c #453231",
"4  c #493536",
"5  c #473933",
"6  c #4B3937",
"7  c #4C3739",
"8  c #4D3A39",
"9  c #513D3E",
"0  c #4D433A",
"q  c #54433F",
"w  c #554341",
"e  c #594645",
"r  c #5A4947",
"t  c #5B4748",
"y  c #5C4B49",
"u  c #604C4D",
"i  c #62534E",
"p  c #665653",
"a  c #685655",
"s  c #675855",
"d  c #695B56",
"f  c #6B5B59",
"g  c #6D6359",
"h  c #6C6F5C",
"j  c #72635E",
"k  c #736461",
"l  c #776865",
"z  c #786E64",
"x  c #7D6E6A",
"c  c #806E6C",
"v  c #82756E",
"b  c #82786E",
"n  c #877A71",
"m  c #897A75",
"M  c #8E817B",
"N  c #94877F",
"B  c #8F947D",
"V  c #938681",
"C  c #968982",
"Z  c #9A8A86",
"A  c #A3968D",
"S  c #A29B8E",
"D  c #A69C92",
"F  c #9EA78C",
"G  c #9FA88D",
"H  c #A0A68C",
"J  c #A2A790",
"K  c #ACA696",
"L  c #A7AA97",
"P  c #AAAA96",
"I  c #ADA599",
"U  c #AEA899",
"Y  c #B2A69D",
"T  c #B2A99D",
"R  c #ACB296",
"E  c #B4B39E",
"W  c #B4AAA0",
"Q  c #B9AFA5",
"!  c #BBB1A7",
"~  c #BFB5AB",
"^  c #BFBCAA",
"/  c #C1B7AE",
"(  c #C2BDAC",
")  c #C5BBB1",
"_  c #C9BFB5",
"`  c #C3C0AE",
"'  c #C5C2B1",
"]  c #C9C4B4",
"[  c #CBC9B5",
"{  c #CEC5BA",
"}  c #CFCCBB",
"|  c #D4CEBE",
" . c #CED0BA",
".. c #D3DCBE",
"X. c #D5CDC2",
"o. c #D8CEC4",
"O. c #D9D5C4",
"+. c #D4DDC1",
"@. c #DAD9C5",
"#. c #DED6CA",
"$. c #DEDCC9",
"%. c #E2DECD",
"&. c #E6DED2",
"*. c #DEE4CA",
"=. c #E2E1CD",
"-. c #E5E6D1",
";. c #EAE4D5",
":. c #E7EAD1",
">. c #EBEBD6",
",. c #EEE6D9",
"<. c #EDECD8",
"1. c #F0EDDB",
"2. c #E7F0D3",
"3. c #ECF4D6",
"4. c #EFF9D7",
"5. c #EEF3D8",
"6. c #EFF5D9",
"7. c #EDF6D9",
"8. c #EEF7D8",
"9. c #EDF6D8",
"0. c #EFF8D9",
"q. c #F0F7D8",
"w. c #F3F7DE",
"e. c #F2F4DC",
"r. c #F1F8D9",
"t. c #F3F9DD",
"y. c #F4F8DF",
"u. c #F4F9DE",
"i. c #F5FCDD",
"p. c #F2FADC",
"a. c #F2EFE0",
"s. c #F7F4E2",
"d. c #F9F6E3",
"f. c #F9F4E3",
"g. c #F7FBE1",
"h. c #F7FBE2",
"j. c #F7FDE1",
"k. c #F7FDE3",
"l. c #F5FFE3",
"z. c #F6FFE2",
"x. c #F7FFE3",
"c. c #F7FBE4",
"v. c #F6FFE4",
"b. c #F7FFE5",
"n. c #F5FDE5",
"m. c #F6FEE3",
"M. c #F9FBE3",
"N. c #F8FAE2",
"B. c #F9FDE2",
"V. c #F8FEE2",
"C. c #FAF9E5",
"Z. c #FCFBE6",
"A. c #FDFBE7",
"S. c #F9FDE4",
"D. c #FAFCE4",
"F. c #FBFDE5",
"G. c #FAFCE6",
"H. c #FBFDE7",
"J. c #F8FEE5",
"K. c #FDFCE7",
"L. c #FCFCE4",
"P. c #FAFCE5",
"I. c #FDFCE8",
"U. c #FEFDE8",
"Y. c #FEFDE9",
"T. c #FFFDE8",
"R. c #FFFEEB",
"E. c #FCFFEB",
"W. c #FFFDEE",
"Q. c #FDFCE9",
/* pixels */
"h L H H H G G G G F G F F G G F F F F F F F H H H G G F G F H H F F F F F F F F F F F G G G F F F F F F F F F G G F H F F G F R ",
"L E.c.J.j.j.v.j.n.j.j.j.j.j.v.l.v.v.v.v.v.v.J.J.v.B.v.j.v.B.B.B.j.j.v.v.v.v.v.j.J.i.j.j.v.v.v.v.v.v.v.j.j.B.v.j.v.j.J.J.v.j.B.B.",
"H v.>.3.2.2.>.3.2.2.2.3.2.2.2.2.2.2.3.2.2.2.>.2.2.2.2.2.2.2.3.2.2.2.2.3.2.2.2.3.>.2.3.3.2.2.>.2.2.2.2.2.2.3.3.2.2.2.2.2.3.3.3.3.",
"F v.3.8.B.L.B.L.j.J.L.L.L.J.J.J.Z.J.Z.L.E.Z.J.J.L.L.J.L.B.B.L.J.B.B.L.J.L.J.A.M.L.L.i.L.J.J.J.L.L.L.J.L.M.M.L.J.J.J.H.j.8.8.3.3.",
"F n.5.u.' I T T T T W T W W W W T T T W W T W W W W W W W W T W W T W W W W W W T T T T T T T T W W T T W W T T W W I ' u.8.8.3.",
"F v.2.J.d   @ + + @ + + + @ + + @ + + @ + @ + + @ + + + o @ + + + @ + + + + @ + + + @ @ @ + + X o + @ + @ + @ + o @   g H.2.3.8.",
"F v.>.Z.j + > > > > : > > > 1 > > > > > > > > > ; - ; : > > > > > > > > > > > > > > > > > : : : > > > > ; > > > - ; # k J.3.8.8.",
"F n.2.H.j o > = + o X o X X X o X X + X X X X O = ; & - o X o X X o X X o X X o X X . X : : : : o o X X X X X # - ; # k L.2.8.3.",
"G j.>.A.j o > = j m v b b v b b b b b v b b b v 4 = - > x n v v b b b b n b b v v b m j = : = 7 m b b b b b m d * ; o j A.3.8.8.",
"G j.3.E.j o : = { E.E.L.L.E.E.E.E.L.E.L.E.L.L.f.u $ - 4 &.E.L.A.L.E.E.E.L.L.E.E.L.L.E.o.= : + f W.A.T.E.E.A.W.T $ ; O k Z.2.3.8.",
"F v.2.L.j o : = ( g.>.2.3.3.>.3.3.>.3.3.3.3.6.;.t % % > O.e.3.3.3.3.3.>.>.3.3.3.3.>.t.] > : O s f.>.>.5.3.>.M.U * ; O j B.3.8.3.",
"F v.2.A.j O : * ( B.3.8.3.3.8.q.3.8.3.3.q.3.q.;.e $ : 3 @.i.2.3.3.8.8.q.8.3.3.8.8.8.B.[ = : O s B.3.3.8.8.3.i.K $ ; O j L.2.3.4.",
"F v.2.E.j O : $ ( i.3.8.8.8.3.8.3.8.3.8.8.3.8.>.r * - 3 @.i.8.8.8.3.3.8.8.3.8.8.8.2.B.[ = > $ d A.3.3.8.8.3.M.U $ : + j A.3.8.8.",
"F v.>.A.j O : * ) i.3.q.3.8.3.8.8.8.8.3.8.3.q.>.e * - , O.i.3.8.3.8.q.3.3.8.8.8.8.3.i.[ = - + p Z.3.8.3.3.3.M.U @ : O j L.2.3.8.",
"F v.2.L.j O : * ( i.2.3.2.3.3.3.8.3.2.8.2.3.q.>.e $ - > O.t.2.8.3.3.3.3.3.2.8.2.2.2.t.] = > + p f.3.2.8.2.3.M.U * : O j L.3.8.3.",
"F B.3.E.j + : = { E.M.A.L.A.A.L.A.L.A.Z.Z.M.E.f.y % - 3 &.L.A.L.L.A.L.A.Z.Z.L.A.L.M.E.o.= > + f W.M.L.A.Z.L.E.W $ : + j L.2.3.8.",
"F v.3.A.j + : = x Z N N N C V C N N N N N N C N 7 % - : m Z N V N N N N C N N N N N Z v - - & 9 Z N N N N N Z j = 1 O k Z.2.8.8.",
"F v.>.E.j o : = $ o o + + o + o + + o + + + o o & ; - : + + o + o + o o o o + o o o o $ - - < & + + o O + + + @ - : O k Z.2.8.8.",
"F v.>.E.j + : : > > < 1 > > 1 1 ; : : : > ; 1 < ; : < > : > 1 < > > > > : ; : > 1 > 1 > < : ; < > 1 : 1 > > > : - ; O j L.3.8.8.",
"F v.2.L.j O : - * o + + + o o + = - - - $ $ o + o + + # + + + + o + + $ - - - - $ o o + o + $ + o + o + + + + % - : O k A.2.3.8.",
"G j.>.A.j o : = m K A S S S S A 8 % ; ; M K A S S S S S S S S S H S D Z > ; = 8 A D S S D S S S S S S S S S D c = : + j Z.3.8.8.",
"G j.3.E.j X : * { E.M.J.L.A.L.f.y $ - = X.E.c.j.B.L.L.L.L.J.L.L.J.Z.E.%.3 - $ y s.J.J.L.H.H.J.J.J.J.J.E.J.Z.E.W $ : O j Z.2.3.8.",
"F j.2.L.j o : * ) g.3.>.3.3.6.>.t $ - = ] g.>.3.2.3.8.2.8.3.3.2.3.>.e.O., - $ y ;.8.3.>.2.5.5.2.8.3.>.2.3.>.i.U $ > O j J.2.8.3.",
"G v.>.E.j O : * ( i.3.8.3.3.r.<.t $ ; = ] i.3.8.8.8.8.8.3.8.8.3.8.3.j.@., - $ e >.8.8.8.8.8.8.8.8.8.8.8.3.3.A.U * : + j L.3.3.8.",
"F v.2.E.j O : = ( L.3.4.3.3.4.>.t $ : = [ j.3.7.7.3.7.3.4.3.4.4.3.3.u.@.; = = y >.7.3.7.7.7.8.3.q.8.8.8.8.8.M.U + > $ j L.2.q.8.",
"F v.>.A.j O : * ) i.3.8.8.3.8.>.e $ > = ] g.3.3.7.7.3.4.3.3.3.3.4.3.l.O.3 = * y >.3.3.7.7.7.3.8.q.8.7.8.8.2.B.U + > O j A.3.8.8.",
"F v.2.E.j O : * ( B.3.3.3.3.q.>.t $ ; = ] u.2.3.3.8.3.3.8.3.3.8.3.2.g.O.3 - $ y :.3.2.3.3.3.3.8.3.8.8.2.3.>.B.U @ : O j L.2.8.8.",
"F j.3.L.j O : * { E.f.i.M.f.A.f.y $ : = | E.Z.Z.g.c.j.j.c.M.c.J.g.g.H.%.1 = = y s.H.g.Z.j.j.c.c.g.d.g.M.M.d.W.Y * : O j L.2.3.8.",
"F v.>.E.j O : = p k j k k j j k 4 & - - a l k k k k k k j k k k k k k f ; - & 2 j k k j k k k k j j k k k j l u = < O k L.2.4.8.",
"F v.3.L.j + : - % # $ + O $ $ + - : - - $ # $ # # + # + + $ # o # # $ $ ; - - - $ # $ # # # $ # $ # # $ # # $ % - : O k A.3.4.3.",
"F v.>.E.j o : : : : : : : : : : - - - - < ; ; - : : : : : : : ; ; - ; ; - - - - < : : ; < ; < - ; ; : : ; : < - - < O k L.3.3.8.",
"F v.2.L.j X : = = = = = = = = = = = = = = = = = - - - = = = = = = = = = * = = - * * = = - - - = = = = = = = = = - < + j J.2.4.3.",
"F v.>.T.j o : * A ] ( ( ( ( ( ( ( ^ ^ ( ^ ^ ( ~ w = - > Y ) ( ^ ^ ^ ^ ^ ^ ^ ^ ^ ( ( ( D = : $ t _ ( ^ ^ ( ( _ N $ : O j Z.3.8.8.",
"F v.2.T.j + < * ] L.i.i.i.M.i.M.i.B.B.i.B.M.J.e.y $ - 3 %.A.g.J.H.n.J.v.J.j.B.B.L.i.L.| = : $ d W.M.g.M.M.y.L.T * : + j Z.2.3.8.",
"F n.2.E.j X : * ( y.3.3.5.5.3.3.8.2.3.3.8.2.8.>.t $ - 2 O.t.3.3.5.5.5.3.3.3.8.3.3.3.t.[ = > + p f.3.3.3.3.3.M.K + > + j J.2.8.3.",
"F n.2.H.j O : * ( i.3.3.3.3.8.3.8.8.8.3.8.8.4.>.y $ - 3 @.j.2.8.8.8.3.3.8.3.8.3.8.3.B.[ = > O d L.2.8.8.8.2.M.U * : O j L.3.3.8.",
"G j.2.E.j O : * ( i.8.8.3.8.3.8.8.8.8.3.7.7.4.>.y $ - 3 @.t.8.8.8.8.8.8.3.8.8.3.3.3.i.[ @ > O d A.3.8.3.8.3.B.U $ : + j A.2.8.8.",
"F n.>.E.j O : * ( L.3.3.3.3.3.8.3.3.3.3.2.7.8.:.e * - 3 @.t.3.3.3.3.5.5.3.3.3.3.3.3.i.[ : > O a Z.3.3.3.3.3.M.U @ : O j A.3.8.8.",
"F j.2.L.j O : * ( L.3.3.q.8.8.q.q.8.8.8.7.7.7.>.r & - 3 @.g.3.e.3.8.q.q.8.8.4.8.q.3.i.] @ > O f Z.8.8.q.8.8.B.U + > O j B.3.3.8.",
"F j.3.E.j + : = ( A.1.u.e.1.e.e.e.1.e.e.a.e.a.<.r & - 1 #.f.1.e.s.e.1.e.e.1.e.e.e.1.L.[ : > O a A.1.1.e.1.1.A.Y $ 1 + j A.2.8.3.",
"F v.3.A.j X : = 9 q q q w q q w e w w w w w w w : - - : 9 w w w w w w w e w w w w e w 8 : % : > e w w w w q e 7 : : O k A.3.8.8.",
"F v.>.E.j + : : = % % % % % % % & $ $ % $ % % $ : : : - % % $ % $ $ $ $ $ $ $ % $ $ $ & : : : % % $ & $ % $ % = - : O k A.>.3.8.",
"F j.2.L.j X : : : = % : % - - - & < < < - = & & = = - - = - - - - = - - < - : - - - - & % % = = & - - - & - : - - : + k L.3.8.3.",
"F j.2.E.j o : - > 3 3 3 , , > 3 < - & - > , 2 4 , , , 3 , 3 , , 3 3 2 2 - - & ; 3 2 3 3 , 3 3 , 3 > 3 3 3 3 3 > - : O j A.2.3.8.",
"F j.2.L.j # - = T -.O.@.@.@.#.O.e % : = ! =.@.@.@.@.@.@.@.@.@.@.@.O.=.] 1 = = t X.@.@.@.@.@.@.@.@...@.@.@.@.&.A $ 1 + j L.3.8.3.",
"H Z.3.A.j o ; $ ' L.r.i.t.r.j.e.t $ ; = } B.t.r.i.r.i.r.t.i.r.i.g.0.B.$.3 - $ y e.i.r.r.i.r.i.r.i.i.i.i.r.q.L.T $ : O j A.2.3.8.",
"F v.2.E.j # < * ) i.3.3.8.8.8.>.e $ ; = ] g.3.8.2.8.8.2.8.8.8.2.3.2.p.O.3 = $ y >.8.2.8.q.3.3.3.3.3.8.3.3.3.B.U @ : O j B.3.8.8.",
"F v.>.T.j # < * ( i.3.8.3.8.r.>.y $ ; - [ i.2.8.8.8.8.8.8.8.8.8.3.3.l.@., = & y >.q.8.8.8.8.8.3.8.8.3.8.8.3.B.U + > + j A.2.8.3.",
"F v.2.E.j O : * ( B.3.8.3.3.q.>.r $ : = [ i.8.8.3.7.7.7.8.8.8.8.8.2.g.@., - * y >.8.8.8.3.8.3.8.3.8.8.3.q.3.i.U + : O j A.8.8.8.",
"F v.>.T.j O < % ( B.3.8.3.3.q.<.r % - = [ i.2.3.3.3.3.3.2.8.8.2.8.8.t.@., = % y >.8.2.8.3.3.3.8.3.3.3.3.3.3.L.U + : + j A.2.3.8.",
"G j.2.E.j O : * ` M.6.e.q.q.r.<.t $ : = [ J.q.w.8.r.4.r.q.q.q.q.8.8.B.@., = $ t >.t.8.r.8.8.w.q.r.q.4.r.r.q.i.Y @ : + k L.2.8.8.",
"G B.>.A.j o : * / y.>.>.>.>.<.,.t $ : = ] e.>.<.<.>.<.>.<.<.<.>.>.>.e.O.> - % t ;.e.>.<.<.<.<.<.>.<.>.<.<.,.f.K % > O k A.2.8.3.",
"F j.2.L.j o : - 4 8 8 8 7 9 7 8 : = : % 4 7 8 8 8 8 8 8 8 8 8 9 8 8 8 7 - : - : 7 8 8 8 8 8 8 8 8 8 9 7 8 8 8 2 - ; O k A.3.8.8.",
"G v.>.T.j o : - % = = + * = = = : : - : = = % & * = & & = & % % & & & = - : : - = % % % % & & & = = % % = = % % & ; O k L.2.8.8.",
"F v.2.T.j o : - : % = : = = % % = % % = = = = & - - < - - = & = = = & = = * % % % = - & - - < = = = % = = = % : - < # k L.3.3.8.",
"F v.2.E.j o : - 3 6 6 7 7 6 7 7 6 7 8 7 8 4 7 7 ; - - - 7 7 8 7 6 6 7 7 7 6 7 6 7 7 8 4 - - - > 9 4 7 7 6 4 8 2 - < O j L.2.8.3.",
"G v.>.E.j o ; = Q ,.%.=.=.=.=.=.=.=.=.=.=.=.-.#.t % ; 3 { :.*.=.*.=.*.=.=.=.=.=.=.*.;./ = < $ p ,.=.=.=.=.%.1.A $ < + j A.8.8.8.",
"F J.2.J.j + ; = ] i.q.r.r.i.8.u.p.4.p.p.p.4.i.>.r $ ; 3 $.B.r.r.0.u.u.u.u.8.u.p.4.8.v.} = > $ s T.q.t.r.r.q.L.U $ 1 $ k J.2.8.8.",
"F j.2.H.g . * o ( B.3.3.3.3.3.7.3.3.3.7.7.3.4.>.w o * ; @.u.3.3.3.3.3.3.8.3.3.7.3.3.i.' * = X p Z.2.8.2.8.2.B.U o = X g L.3.2.8.",
"G v.3.J.x 5 w 0 ` i.3.8.7.3.4.3.7.7.7.7.7.7.4.>.g 5 0 r $.u.3.3.3.8.7.7.8.4.7.7.7.4.p. .0 q 5 z g.8.8.8.8.8.i.E 5 e 5 x B.2.8.8.",
"F v.2.u.>.:.-.-.3.7.7.7.7.7.7.7.8.7.7.7.8.8.8.7.>.:.-.:.3.7.3.7.3.7.7.7.8.3.8.3.7.7.3.3.=.:.:.>.q.q.8.3.7.7.4.2.-.:.:.:.q.8.3.3.",
"F v.2.3.8.r.8.u.3.7.3.7.7.3.7.3.3.7.3.3.3.3.3.3.4.8.w.8.3.7.3.3.3.3.7.7.3.3.3.3.7.4.3.7.4.8.8.r.3.3.8.3.7.7.3.8.7.0.8.8.8.3.3.3.",
"J v.8.g.r.r.0.8.4.4.0.0.4.8.4.0.p.4.p.0.0.p.u.0.0.0.8.0.7.4.0.p.4.r.0.p.p.4.r.p.r.p.p.4.4.r.8.0.u.r.u.8.7.7.p.0.8.0.8.p.p.0.u.0.",
"B *.+.+...+.+.+...............*.....+.+.....+.+.+...+.+.....*.......+.+.....+.......................+.+.....*.+...+.+.+.....+.+."
};
